<?xml version="1.0" encoding="UTF-8" standalone="no"?>
<!-- Created with Inkscape (http://www.inkscape.org/) -->

<svg
   width="277.66791mm"
   height="261.40594mm"
   viewBox="0 0 277.66791 261.40594"
   version="1.1"
   id="svg5"
   xml:space="preserve"
   inkscape:version="1.2.2 (b0a8486541, 2022-12-01)"
   sodipodi:docname="aesus-pengu.svg"
   inkscape:export-filename="aesus-pengu.png"
   inkscape:export-xdpi="96"
   inkscape:export-ydpi="96"
   xmlns:inkscape="http://www.inkscape.org/namespaces/inkscape"
   xmlns:sodipodi="http://sodipodi.sourceforge.net/DTD/sodipodi-0.dtd"
   xmlns="http://www.w3.org/2000/svg"
   xmlns:svg="http://www.w3.org/2000/svg"><sodipodi:namedview
     id="namedview7"
     pagecolor="#ffffff"
     bordercolor="#000000"
     borderopacity="0.25"
     inkscape:showpageshadow="2"
     inkscape:pageopacity="0.0"
     inkscape:pagecheckerboard="0"
     inkscape:deskcolor="#d1d1d1"
     inkscape:document-units="mm"
     showgrid="false"
     inkscape:zoom="0.7500982"
     inkscape:cx="654.58096"
     inkscape:cy="283.29624"
     inkscape:window-width="1854"
     inkscape:window-height="1011"
     inkscape:window-x="66"
     inkscape:window-y="32"
     inkscape:window-maximized="1"
     inkscape:current-layer="layer1" /><defs
     id="defs2" /><g
     inkscape:label="Layer 1"
     inkscape:groupmode="layer"
     id="layer1"
     transform="translate(68.197336,-47.959391)"><path
       style="fill:#f9f9f9;stroke-width:0.264583"
       d="m 187.77158,96.5602 c 0.87645,0.959679 2.54022,2.150359 7.93285,5.67718 l 6.82379,4.46281 -0.38372,0.44855 c -0.32376,0.3785 -0.54567,0.35657 -1.42027,-0.14026 -0.57008,-0.32389 -2.25892,-1.2182 -3.75296,-1.98744 -1.49403,-0.76924 -3.05506,-1.58718 -3.46897,-1.81766 -0.41389,-0.23049 -0.78989,-0.36034 -0.83552,-0.28858 -0.0456,0.0717 0.0792,0.79135 0.27747,1.59911 0.52634,2.14469 0.48543,4.97776 -0.10237,7.08913 -0.44464,1.59713 -0.7525,2.18303 -2.24758,4.27748 -1.44836,2.02899 -1.6913,2.48224 -1.48212,2.76441 0.13764,0.18565 1.25806,2.57479 2.48983,5.30922 1.23175,2.73442 4.30838,9.37327 6.83694,14.75299 2.52856,5.37972 4.73529,10.3045 4.90383,10.94396 0.91697,3.47905 -0.33547,4.57216 -6.1735,5.38814 -2.08575,0.29152 -4.23177,0.49749 -4.76893,0.4577 -1.87251,-0.13871 -3.1012,-1.3916 -3.44469,-3.5125 -0.14218,-0.87795 -0.27773,-1.0946 -0.65491,-1.04671 -0.4031,0.0512 -0.51775,0.28027 -0.75195,1.50243 -0.4187,2.18483 -0.46606,2.29406 -1.28537,2.96424 -1.56516,1.28028 -3.8585,0.90426 -4.83628,-0.79299 -0.67183,-1.16616 -3.31878,-8.80588 -3.60906,-10.41657 -0.34097,-1.89199 -0.0596,-3.28581 0.79142,-3.92086 0.3268,-0.24387 1.87626,-0.75959 3.44323,-1.14604 2.35863,-0.58169 2.8381,-0.7888 2.78548,-1.20321 -0.035,-0.27532 -0.91422,-2.4155 -1.95389,-4.75599 -1.03968,-2.34048 -2.38162,-5.56259 -2.98208,-7.16026 -0.60047,-1.59766 -1.16652,-3.09275 -1.25788,-3.32243 -0.11308,-0.28424 -0.3466,-0.40931 -0.7313,-0.39169 -3.70259,0.16988 -6.39168,-0.49561 -9.68519,-2.39684 -4.27123,-2.46564 -6.64932,-5.52322 -7.82946,-10.06661 -0.74927,-2.8846 -0.76754,-5.44272 -0.0579,-8.10582 1.22525,-4.59789 4.26862,-7.762663 9.27637,-9.646411 1.01768,-0.382808 1.88948,-0.757588 1.93733,-0.832832 0.0479,-0.07527 -1.01163,-0.835438 -2.35438,-1.68931 -2.5457,-1.618844 -3.44836,-2.49851 -3.10992,-3.030725 0.29197,-0.459138 1.01745,-0.16 4.59564,1.894937 5.5866,3.208359 4.38355,2.065824 -2.34585,-2.227875 -6.22066,-3.969066 -7.42591,-4.840261 -7.19607,-5.2017 0.348,-0.547252 4.46646,1.706699 15.93304,8.719867 2.48322,1.518788 5.6559,3.407925 7.0504,4.198086 1.94184,1.100324 2.79508,1.721012 3.64451,2.65105 z m -7.10794,-0.784064 c -1.818,-0.856956 -5.55247,-1.038248 -8.44,-0.409719 -2.89465,0.630076 -4.80996,1.668131 -6.57839,3.565348 -2.25161,2.415595 -3.1435,6.424605 -2.27603,10.230785 1.46713,6.43731 7.14965,10.55611 14.07027,10.19837 2.42359,-0.12528 2.97788,0.38198 4.46344,4.08465 0.67984,1.69443 2.67494,6.3651 4.43358,10.37927 1.75864,4.01417 3.27418,7.61075 3.36788,7.99241 0.13935,0.56769 0.0587,0.781 -0.44351,1.1726 -0.49103,0.3829 -0.74386,0.39074 -1.26365,0.0392 -0.35738,-0.24172 -0.76247,-0.61043 -0.90018,-0.81937 -0.34636,-0.52554 -6.12373,0.56752 -6.22122,1.17704 -0.0376,0.2348 0.35456,1.57865 0.87136,2.98631 0.5168,1.40768 1.21001,3.52932 1.54046,4.71476 0.75231,2.6988 1.19758,2.76715 1.80873,0.27764 0.54604,-2.22434 0.97563,-2.85217 2.2194,-3.24357 2.32275,-0.73096 3.6614,-0.0893 4.37382,2.09655 0.27345,0.839 0.62563,1.68755 0.78262,1.88569 0.29688,0.37469 3.19886,0.18494 6.08899,-0.39815 1.2196,-0.24605 1.5084,-0.40025 1.4242,-0.76041 -0.0581,-0.24847 -1.65039,-3.79145 -3.53845,-7.87329 -7.28062,-15.74017 -10.92041,-23.79753 -11.12177,-24.62014 -0.20034,-0.81847 -0.16295,-0.90395 0.8631,-1.9736 4.06655,-4.23932 4.84752,-9.31919 2.1595,-14.04667 -1.68564,-2.964575 -3.87314,-4.859311 -7.68415,-6.655714 z m 2.31052,7.661484 c 1.72639,2.2817 1.76501,5.15802 0.10473,7.80032 -1.99719,3.1785 -5.79908,4.16725 -9.78186,2.54396 -5.26196,-2.14466 -6.56108,-8.94183 -2.39755,-12.54441 1.16321,-1.00648 3.50891,-1.602589 5.4513,-1.385325 1.40193,0.156815 2.00363,0.388415 3.83247,1.475065 1.42145,0.84455 2.38372,1.57225 2.79091,2.11039 z m -6.30815,-0.9196 c -1.06946,-0.29683 -3.02924,-0.0299 -4.02162,0.54772 -0.39671,0.23091 -0.95903,0.7937 -1.2496,1.25064 -0.4392,0.69066 -0.46343,1.0955 -0.14363,2.40028 0.94546,3.85769 5.84009,5.58659 8.84871,3.12558 1.60941,-1.31648 1.62418,-3.92726 0.0303,-5.34787 -0.40954,-0.36495 -0.87662,-0.78881 -1.03799,-0.94183 -0.34852,-0.33042 -1.20446,-0.69542 -2.42613,-1.03452 z m 32.67902,12.38236 c 0.21282,0.61592 0.19882,0.641 -0.38832,0.69581 -0.82425,0.077 -3.96646,-1.60619 -7.34914,-3.93666 -2.74946,-1.89422 -3.46993,-2.55591 -3.21665,-2.95421 0.31621,-0.49725 1.94974,0.24451 6.20403,2.81716 3.90246,2.35989 4.55982,2.82735 4.75005,3.37788 z M 157.14286,86.173177 c 0.11411,0.159546 0.06,0.521975 -0.12022,0.805402 -0.40416,0.635559 -1.56436,0.459222 -4.43167,-0.673592 -3.34295,-1.320738 -4.23894,-1.851275 -4.50686,-2.6686 -0.1909,-0.582387 -0.13962,-0.767848 0.26778,-0.96828 0.38479,-0.189301 1.38094,0.109157 4.21392,1.262547 3.8357,1.561613 4.22727,1.753463 4.57705,2.242523 z m 0.57981,6.319439 c -0.12989,0.640787 -1.11488,1.019824 -3.41858,1.315538 -3.11274,0.399566 -4.1949,0.326504 -4.55193,-0.30731 -0.56815,-1.008626 0.0995,-1.371413 3.33429,-1.811651 1.96481,-0.267406 3.85882,-0.205436 4.4087,0.144242 0.17595,0.111888 0.27833,0.408521 0.22752,0.659181 z M 88.75241,66.631455 c 3.200483,2.924844 3.453813,3.106489 11.58477,8.306598 8.22674,5.261346 9.56071,6.26897 9.15143,6.912579 -0.10376,0.163172 -0.0905,0.419725 0.0294,0.570115 0.11995,0.150348 0.0612,0.137535 -0.13049,-0.02847 -0.19168,-0.166093 -0.77914,-0.462634 -1.30537,-0.659141 -0.52625,-0.196481 -2.70498,-1.375606 -4.84162,-2.620306 -2.13663,-1.244709 -3.943087,-2.250109 -4.014331,-2.234253 -0.07123,0.01585 0.380317,0.45023 1.003461,0.965286 1.09062,0.901414 3.70713,2.344494 11.50603,6.34591 4.3898,2.252301 10.24508,5.91475 10.2388,6.404326 -0.002,0.185983 -0.17439,0.375979 -0.38226,0.422223 -0.20786,0.04627 -0.43198,0.279473 -0.49804,0.518229 -0.10721,0.387461 -0.12075,0.380876 -0.12598,-0.06127 -0.005,-0.448914 -0.31876,-0.642105 -3.33964,-2.058299 -1.83358,-0.859566 -4.23746,-2.027773 -5.34195,-2.596018 -1.98469,-1.021071 -1.99623,-1.02311 -0.98647,-0.17448 0.89471,0.751933 0.83133,0.729023 -0.50986,-0.184352 -0.8424,-0.573615 -2.76799,-1.650346 -4.27922,-2.392542 -1.51119,-0.742225 -2.87634,-1.424462 -3.03365,-1.516071 -0.15725,-0.0917 -0.35681,-0.05524 -0.44332,0.0808 -0.11114,0.174775 0.54254,0.629579 2.2281,1.550183 2.92685,1.598576 9.00046,4.724386 11.75269,6.048582 4.89933,2.357231 6.30906,3.070092 9.60888,4.858927 4.15192,2.25077 21.56961,13.052039 22.71199,14.084439 0.95539,0.86341 0.74626,1.44948 -0.4009,1.1235 -0.43817,-0.12453 -4.16877,-2.24573 -8.29022,-4.71377 -6.98311,-4.18171 -14.26277,-8.320085 -16.23583,-9.229844 -1.2026,-0.554503 -7.94377,-4.060884 -12.42871,-6.464732 -2.09001,-1.120193 -3.83897,-1.975434 -3.88661,-1.900518 -0.15101,0.237463 6.73394,4.372736 7.71424,4.633381 0.51629,0.137269 3.12896,1.353883 5.80594,2.703579 3.80768,1.919787 7.86565,4.286356 18.64104,10.871324 22.13879,13.52924 21.97102,13.41652 22.79068,15.31194 0.31367,0.72534 0.87234,1.327 2.10051,2.26209 0.96967,0.73827 1.92682,1.69233 2.27641,2.26906 0.33177,0.54732 0.71187,0.99653 0.84468,0.99824 0.61898,0.008 2.94924,1.15929 3.55304,1.75551 1.4807,1.46211 -0.62152,1.4512 -3.02915,-0.0157 l -0.94752,-0.5773 -0.6796,1.08734 c -0.87499,1.39981 -2.79693,2.55879 -5.07822,3.06235 -1.53859,0.33961 -8.2535,0.50954 -10.07485,0.25496 -0.40422,-0.0565 -0.78077,-0.0307 -0.83677,0.0574 -0.056,0.0881 0.56912,1.15744 1.38915,2.37639 4.07208,6.05312 7.54267,11.57124 8.1821,13.00929 0.39157,0.88061 0.74644,2.1705 0.78858,2.86645 0.0753,1.24227 0.0587,1.28059 -0.91397,2.10607 -10.6909,9.07348 -20.9005,18.36366 -21.88854,19.91741 -0.13932,0.21907 0.58548,0.19255 1.91223,-0.07 4.46665,-0.88392 7.26353,0.55352 6.71854,3.45293 -0.33636,1.78946 0.0259,2.10314 2.69591,2.33433 5.44405,0.47138 8.08344,2.95063 7.05403,6.62604 -0.23319,0.83255 -0.40875,1.63494 -0.39016,1.78312 0.0186,0.14816 1.10967,0.36324 2.4246,0.47794 2.01085,0.17541 2.66222,0.35857 4.09871,1.15248 1.51487,0.83725 1.75774,1.05981 2.14861,1.96916 0.24239,0.56387 0.41902,1.57166 0.39253,2.23951 -0.0436,1.09889 -0.18643,1.40948 -1.50284,3.26798 -0.80004,1.12953 -1.68411,2.27 -1.96455,2.53439 -0.46141,0.43501 -0.44069,0.56071 0.21829,1.32227 1.89157,2.18611 1.13654,5.33698 -2.01544,8.41076 -2.41663,2.35669 -6.51176,4.24439 -11.49495,5.29876 -1.55585,0.32918 -2.11939,0.5807 -2.44365,1.0906 -1.4039,2.2077 -5.4683,2.90374 -13.89879,2.38021 -2.8396,-0.17635 -4.17796,-0.39074 -10.68115,-1.71114 l -2.64802,-0.53766 -0.74925,1.16332 c -0.80141,1.24535 -2.35904,2.33781 -3.92191,2.75159 -0.82836,0.21931 -1.13431,0.5842 -6.34458,7.56671 -12.569168,16.84449 -18.503554,23.07552 -27.892601,29.28686 -6.696756,4.43027 -12.030102,6.70427 -19.79475,8.43997 -6.021253,1.34598 -9.470051,1.66547 -14.995692,1.3892 -14.801706,-0.7401 -30.378903,-7.37727 -41.8839089,-17.84603 -17.3485141,-15.78596 -24.5337421,-36.7526 -19.4446521,-56.73995 2.26628,-8.90081 6.6524739,-18.33133 12.6485489,-27.19496 2.57650506,-3.80869 7.8204068,-10.85788 8.5324354,-11.46982 0.1653557,-0.14207 -0.1731773,-2.80143 -0.34609,-2.71897 -0.054998,0.0263 -1.0658762,1.05613 -2.2463517,2.28865 -2.64191499,2.75836 -5.9488315,5.76528 -7.0372067,6.3988 -0.447761,0.26063 -1.2909416,0.49925 -1.8737223,0.53026 -0.9146784,0.0487 -1.3089344,-0.10622 -2.8822717,-1.13231 l -1.8226579,-1.18867 -0.658173,0.55174 c -0.362,0.30346 -1.688989,1.58941 -2.94886,2.85767 -7.980686,8.03375 -15.015177,10.60352 -23.061274,8.42454 -1.710787,-0.4633 -2.482996,-0.84595 -5.245232,-2.59917 -2.77656,-1.76233 -3.430709,-2.28263 -4.580933,-3.64382 -4.155077,-4.91719 -5.575433,-10.22633 -4.403454,-16.45966 0.906037,-4.81894 2.850913,-7.99071 9.073179,-14.79687 2.33893,-2.55842 2.41755,-2.73536 1.637779,-3.68558 -1.726217,-2.10356 -2.087851,-4.38108 -1.088708,-6.85661 0.699971,-1.73432 1.030061,-2.11696 6.857973,-7.95022 2.581256,-2.58362 5.535993,-5.57252 6.566086,-6.64198 6.604493,-6.856941 8.982285,-8.645096 11.575821,-8.705259 2.204326,-0.05115 3.875562,0.503647 6.492471,2.15528 l 2.252769,1.421899 1.7827575,-1.159535 c 4.1400726,-2.692791 9.4438364,-3.299898 16.5877725,-1.898784 2.64768,0.519281 2.691051,0.516191 3.587831,-0.254924 6.917504,-5.94817 10.232032,-8.127804 13.53515,-8.900708 2.439441,-0.570817 4.760152,-0.409347 6.481063,0.450927 1.45948,0.72959 3.047793,2.515967 4.700875,5.287083 0.86989,1.458221 1.076929,1.682303 1.18748,1.285237 0.07364,-0.264513 0.321843,-0.996342 0.551532,-1.626322 0.576708,-1.581752 1.681136,-5.699374 2.387853,-8.902649 0.86801,-3.934307 1.233389,-8.728694 0.869055,-11.403276 -0.485504,-3.563976 -0.477687,-3.62474 0.548907,-4.270253 1.115285,-0.70129 3.363346,-0.659565 6.828431,0.126739 2.947081,0.668765 3.645241,1.017679 4.504998,2.251452 0.323706,0.464525 0.645479,0.880785 0.715053,0.925029 0.06953,0.04422 0.378303,-0.462213 0.686147,-1.1254 0.522343,-1.125468 0.631585,-1.219302 1.638889,-1.407759 0.59358,-0.111056 1.538866,-0.07184 2.100622,0.08716 1.00186,0.283554 4.545638,1.951319 6.598787,3.10549 l 1.039412,0.584302 -0.534047,-2.858219 c -0.293718,-1.572016 -0.554993,-3.269034 -0.580601,-3.771137 l -0.04656,-0.91291 -5.590397,-3.96436 c -4.268386,-3.026869 -5.617898,-4.087923 -5.706687,-4.48687 -0.0996,-0.447511 -0.04771,-0.531231 0.361408,-0.583239 0.589397,-0.07485 5.208001,2.330845 8.585129,4.471743 2.354992,1.492828 3.023108,1.701084 2.616955,0.815432 -0.09032,-0.196953 -3.629465,-2.563759 -7.864765,-5.259563 -7.644145,-4.865746 -8.866132,-5.780397 -8.496803,-6.361183 0.451794,-0.710466 5.246495,1.685039 12.58965,6.289972 4.515875,2.831883 5.21792,3.180186 5.503951,2.730389 0.13186,-0.207356 -0.445193,-0.693529 -2.176517,-1.833737 -2.435386,-1.603916 -3.114932,-2.324849 -2.571234,-2.72796 0.47389,-0.351347 1.195748,-0.06146 4.344341,1.744577 1.876834,1.076535 3.406798,1.782948 4.415881,2.038802 0.849234,0.21533 2.008484,0.686843 2.576114,1.047806 0.850745,0.540999 1.272382,0.622061 2.400012,0.461379 0.752373,-0.107206 1.878966,-0.02573 2.503546,0.181071 1.88334,0.623557 4.848343,2.725515 8.320309,5.898464 z m -8.703636,-1.475029 c -0.553821,-0.01047 -1.094131,0.118085 -1.200696,0.285662 -0.207633,0.326513 -0.141464,2.446239 0.134316,4.302499 0.213144,1.434729 -0.06262,1.90895 -0.827311,1.422674 -0.971861,-0.618018 -1.590335,-1.900434 -2.073377,-4.299226 L 75.62086,64.57949 73.944991,63.443747 c -1.590252,-1.077743 -1.703691,-1.114803 -2.220013,-0.726528 -0.703092,0.528739 -1.338466,2.000065 -1.472294,3.409107 -0.110596,1.164796 0.787559,4.990755 1.86205,7.931969 0.904173,2.475004 2.957283,6.74999 3.365452,7.007559 1.145985,0.722821 7.589913,3.398193 10.530733,4.37164 5.895545,1.951492 8.450547,1.933402 10.148545,-0.07184 0.747533,-0.88278 0.770841,-1.00743 0.484981,-2.593611 -0.50804,-2.819057 -2.680257,-5.899464 -7.568384,-10.732713 -1.217601,-1.203934 -2.899142,-2.775372 -3.73676,-3.4921 -0.837623,-0.716719 -1.750673,-1.499713 -2.029,-1.739999 -1.298439,-1.120905 -2.309893,-1.632867 -3.261516,-1.650827 z m 42.500056,32.397056 c -2.04566,-1.122116 -4.5184,-2.430933 -5.49498,-2.908488 -1.02747,-0.502437 -1.94616,-1.096835 -2.18042,-1.410728 -0.52827,-0.707949 -0.56281,-0.722877 -0.80208,-0.346611 -0.1117,0.175652 -0.45684,0.219156 -0.76697,0.09668 -0.31015,-0.122449 1.42399,1.060633 3.8536,2.629129 3.72035,2.401722 4.40807,2.778023 4.35806,2.383921 -0.0978,-0.769782 1.01968,-0.173891 8.25803,4.403755 4.52019,2.85868 7.38677,4.53545 8.71303,5.09666 1.80272,0.76286 1.35244,0.45214 -5.12119,-3.53384 -3.90374,-2.40362 -8.77143,-5.288332 -10.8171,-6.410454 z m 25.22335,17.689478 c -3.91777,-1.78056 -8.36093,-3.48623 -8.97698,-3.44616 -0.50739,0.033 -0.53814,0.0927 -0.41652,0.80875 0.17041,1.00339 2.65158,5.89671 4.8304,9.52644 0.94296,1.57089 2.14997,3.69765 2.68226,4.72616 1.13534,2.19374 1.18918,2.21993 5.5934,2.72174 3.4596,0.39418 6.89833,0.29684 8.96842,-0.25385 1.73922,-0.46268 3.35654,-1.41114 3.24618,-1.9037 -0.0368,-0.16412 -0.67876,-0.77837 -1.42666,-1.365 l -1.3598,-1.0666 -1.93426,0.18903 c -2.19082,0.21409 -3.66522,-0.0502 -4.02709,-0.72185 -0.20866,-0.38728 -0.0748,-0.48899 1.08236,-0.82215 2.05505,-0.5917 3.24446,-1.15719 3.24945,-1.54488 0.006,-0.48308 -8.04439,-5.27233 -11.51115,-6.84793 z m -48.553174,-25.625109 -1.441545,2.266892 1.367829,0.684191 c 7.03268,3.517753 9.58721,4.942499 14.87116,8.294176 5.1179,3.24624 12.50301,8.52683 13.92536,9.95685 0.37921,0.38126 0.45799,0.31673 1.3485,-1.10474 0.51984,-0.83052 1.20968,-1.65582 1.53226,-1.83447 0.99978,-0.55366 1.25201,-0.37455 -17.19027,-12.207126 l -12.97172,-8.322708 z m 14.784244,19.396059 c -2.19198,1.77565 -4.12504,3.02072 -4.40927,2.83997 -0.095,-0.0604 -0.35851,-1.63379 -0.58565,-3.49644 -0.58007,-4.75671 -0.34952,-4.42598 -4.30763,-6.17958 -7.812698,-3.461331 -11.505932,-5.142131 -12.027092,-5.473543 -0.306607,-0.194975 -0.577816,-0.322526 -0.602715,-0.283372 -0.172883,0.271866 -5.400972,5.038185 -5.566763,5.075085 -0.350617,0.078 -0.842727,-1.536677 -1.053671,-3.457307 -0.110058,-1.002114 -0.272306,-2.426889 -0.36055,-3.16616 l -0.160445,-1.344121 -3.48272,-1.637672 c -1.915498,-0.900716 -5.046348,-2.562486 -6.957451,-3.692811 -1.911102,-1.130324 -3.499885,-2.015578 -3.530632,-1.967227 -0.03075,0.04835 -0.217109,1.667009 -0.414138,3.597014 -0.234822,2.300243 -0.234245,4.267099 0.0017,5.709433 0.391598,2.394195 0.420541,6.395121 0.06049,8.361751 -0.198863,1.0862 -0.148968,1.26869 0.404368,1.47914 0.347178,0.13201 1.545569,0.64516 2.663106,1.1403 1.854235,0.82152 2.047466,0.85418 2.210078,0.37342 0.449286,-1.32841 1.359052,-3.00317 1.629484,-2.9997 0.58896,0.008 0.802795,1.27819 0.447926,2.66177 -0.521776,2.0344 -0.466607,2.2114 0.881967,2.82945 2.142184,0.98175 3.282289,1.8337 3.325292,2.48485 0.05958,0.90217 -0.860155,0.89575 -3.341415,-0.0233 -2.065918,-0.76523 -2.090107,-0.76605 -2.31657,-0.078 -0.12586,0.38241 -0.560259,1.53363 -0.965308,2.55828 -0.405044,1.02465 -0.721534,1.93002 -0.703309,2.01191 0.01822,0.0819 1.027216,0.59977 2.24218,1.15083 2.368726,1.07435 3.12968,1.74287 3.11133,2.73336 -0.01576,0.85098 -0.863319,0.78656 -3.193362,-0.24271 -2.783527,-1.2296 -3.706373,-1.37272 -4.00445,-0.62106 -0.300801,0.75856 -1.455012,1.62343 -1.724378,1.29211 -0.114027,-0.14018 -0.07314,-0.81328 0.0908,-1.4957 l 0.298077,-1.24078 -2.369762,-0.46454 c -1.303359,-0.2555 -2.405566,-0.37466 -2.449357,-0.26478 -0.0438,0.10987 -0.92019,1.78168 -1.947585,3.71514 -1.027381,1.93345 -1.99309,3.78854 -2.146011,4.12243 -0.152941,0.33387 -0.770528,1.39978 -1.372468,2.36867 l -1.094404,1.76162 1.038596,0.43793 c 0.571222,0.24086 1.473688,0.54128 2.005479,0.66759 0.880948,0.20923 1.041316,0.14286 1.804251,-0.74675 0.845509,-0.9859 2.151479,-1.53597 2.404699,-1.01286 0.07506,0.15509 -0.11792,0.83709 -0.428865,1.51557 -0.543442,1.1858 -0.538807,1.24239 0.119579,1.46064 2.804924,0.92981 5.611257,2.12575 7.686237,3.27558 2.65805,1.47292 3.00488,1.93146 2.182876,2.88588 -0.464108,0.53887 -1.659987,0.21905 -5.447076,-1.45674 -4.234277,-1.87368 -6.370308,-2.64951 -9.197936,-3.3408 -1.682851,-0.41143 -3.656985,-1.11804 -5.106116,-1.82766 -1.299405,-0.63629 -2.472014,-1.1039 -2.605813,-1.03913 -0.133757,0.0648 -1.063654,1.47255 -2.066312,3.12842 l -1.823028,3.01065 1.21565,0.67054 c 1.276071,0.70387 3.105702,1.36586 6.13005,2.21781 l 1.811259,0.51024 0.754322,-1.28684 c 1.350497,-2.30392 2.101702,-3.27781 2.708428,-3.51168 0.568542,-0.21912 0.58795,-0.18254 0.422126,0.79598 -0.0956,0.56412 -0.501384,1.78352 -0.901768,2.70979 -0.40038,0.92627 -0.71786,1.72951 -0.705512,1.78499 0.0239,0.1074 2.665789,1.22445 3.403718,1.43923 0.354116,0.10307 0.733513,-0.27423 1.960523,-1.94968 1.924642,-2.62804 2.29152,-2.99873 2.706593,-2.73478 0.425082,0.27032 0.202506,1.3857 -0.495569,2.48345 -0.916895,1.44186 -1.569294,3.05822 -1.352433,3.35071 0.113825,0.15356 1.082236,0.69769 2.151921,1.20934 2.282098,1.09142 2.762725,1.67188 2.163837,2.61366 -0.501816,0.78913 -1.179858,0.76659 -3.275144,-0.10885 -2.678844,-1.11927 -2.725119,-1.11692 -3.759557,0.19077 -1.0121,1.27946 -2.326387,2.18249 -2.318827,1.59325 0.0026,-0.20155 0.308242,-1.03539 0.679244,-1.85296 0.370995,-0.81758 0.639841,-1.64242 0.597428,-1.83299 -0.04862,-0.21847 -0.621146,-0.55784 -1.549751,-0.91855 -2.440509,-0.94816 -2.327331,-0.95377 -3.029478,0.15038 -0.348637,0.54825 -1.028811,1.27026 -1.511507,1.60446 l -0.877613,0.60766 0.04588,-0.7547 c 0.02523,-0.41508 0.25144,-1.22538 0.50267,-1.80066 0.25123,-0.57528 0.406922,-1.14897 0.345979,-1.27486 -0.06097,-0.12588 -1.250409,-0.5277 -2.643273,-0.89287 l -2.532462,-0.66396 -3.502647,1.29975 c -3.365372,1.24881 -8.461514,2.69695 -8.776381,2.49392 -0.203186,-0.13158 0.801161,-1.00308 1.889571,-1.63999 0.486047,-0.28442 2.314345,-1.13488 4.062874,-1.8899 1.748533,-0.75503 3.224742,-1.44446 3.280463,-1.53209 0.05572,-0.0876 -0.123558,-0.30493 -0.398411,-0.4829 -1.722369,-1.1153 -2.151978,-1.5427 -2.316767,-2.305 -0.1715,-0.79336 -0.09266,-0.94793 2.626794,-5.14928 1.541935,-2.38228 2.860137,-4.39557 2.929154,-4.4741 0.160497,-0.18232 1.75479,0.31869 3.230307,1.01514 l 1.145525,0.54069 0.906416,-1.42538 c 1.800018,-2.83061 5.404998,-10.01259 5.288511,-10.53598 -0.02555,-0.1145 -0.637177,-0.32508 -1.359264,-0.468 -2.158953,-0.42721 -2.633071,-0.70501 -2.643242,-1.54881 -0.0049,-0.40848 0.363973,-1.77541 0.819759,-3.03764 0.455782,-1.26223 1.071184,-3.32311 1.367581,-4.57973 0.296384,-1.25662 0.709165,-2.44297 0.9173,-2.63632 0.512788,-0.47638 1.787291,-0.50049 3.49136,-0.0661 0.779078,0.19862 1.477381,0.26539 1.551786,0.14838 0.572423,-0.90016 0.391173,-6.720379 -0.35429,-11.376851 -1.009827,-6.307801 -2.573313,-11.147395 -4.803186,-14.867748 -1.178197,-1.965725 -3.171917,-4.335313 -3.572589,-4.24614 -0.135973,0.03026 -0.306679,0.541155 -0.379151,1.135361 -0.156603,1.283269 -1.431707,4.607944 -1.900592,4.955577 -0.181255,0.134455 -0.513886,0.207051 -0.739087,0.161397 -0.488962,-0.09912 -1.999791,-2.568238 -3.033785,-4.958063 l -0.743957,-1.719486 -2.456177,-0.520951 c -1.350896,-0.286521 -2.515596,-0.427512 -2.58822,-0.313308 -0.07262,0.114205 -0.08933,2.014327 -0.03712,4.222489 0.107744,4.557384 -0.254888,7.198177 -1.73759,12.653545 -0.570696,2.0998 -1.053957,3.843473 -1.073908,3.874846 -0.01996,0.03139 0.361129,1.928287 0.846841,4.215354 0.485716,2.287059 1.058478,5.751218 1.272803,7.698138 0.335113,3.04409 0.584695,3.98971 1.782034,6.75192 2.314015,5.33834 2.787469,8.12874 1.831269,10.79298 -0.371275,1.0345 -0.573831,0.96574 -0.800595,-0.27182 -0.292804,-1.59814 -3.337348,-8.38875 -3.722642,-8.303 -0.108917,0.0242 -0.310965,1.34815 -0.44909,2.94203 -0.327841,3.78328 -1.096101,6.80514 -2.281752,8.97509 l -0.953588,1.74521 0.249512,-5.52481 c 0.380958,-8.43555 -0.121688,-13.07922 -1.757967,-16.24067 -1.282493,-2.4779 -5.192337,-9.19512 -5.672163,-9.744904 l -0.387689,-0.444229 -0.395304,1.782694 c -0.575504,2.595299 -1.546374,5.430919 -3.09669,9.044409 -0.751745,1.75219 -1.356874,3.23042 -1.344732,3.28498 0.01214,0.0545 0.912816,0.45222 2.0015,0.88369 2.657655,1.05331 3.917931,1.86845 3.798617,2.45695 -0.05234,0.25842 -0.30335,0.47331 -0.578183,0.49459 -0.267084,0.0208 -0.975715,0.0885 -1.574753,0.15045 l -1.089146,0.11265 0.04368,1.68404 c 0.04448,1.71483 -0.440416,2.95549 -1.152449,2.94866 -0.582356,-0.006 -1.210456,-0.61596 -2.458209,-2.38885 -0.618688,-0.87909 -1.394396,-1.86635 -1.723796,-2.19392 l -0.598905,-0.59558 -1.554425,2.4444 c -1.861277,2.92694 -4.104617,5.44609 -6.620596,7.43459 -1.019169,0.80549 -1.840008,1.52301 -1.8241,1.59448 0.01592,0.0715 0.593675,0.6314 1.283943,1.24427 l 1.255014,1.11431 2.621538,-0.54119 c 1.441854,-0.29766 2.782961,-0.43854 2.980241,-0.31309 0.575123,0.36573 -0.263651,1.36044 -1.893172,2.24514 l -1.462909,0.79424 -0.508421,1.94488 c -0.279629,1.06969 -0.444916,1.98755 -0.367301,2.03966 0.07783,0.0519 1.121974,-0.16334 2.3208,-0.47882 1.556648,-0.40964 2.842174,-1.00373 4.497424,-2.07842 3.337059,-2.16661 4.544302,-2.83564 4.76219,-2.63907 0.277185,0.25009 -1.022003,1.93519 -2.958517,3.83729 -2.244434,2.20456 -4.179207,3.14313 -8.065636,3.91263 l -3.19598,0.63281 -2.702192,2.93764 c -1.486208,1.6157 -2.689066,2.99669 -2.672999,3.06885 0.06853,0.30789 6.187592,1.46372 8.048082,1.5202 2.616,0.0794 6.815942,-0.96102 10.54077,-2.6112 1.609221,-0.71292 3.222328,-1.34686 3.584696,-1.40874 0.622489,-0.10632 0.649548,-0.0836 0.490469,0.41191 -0.263773,0.82169 -1.671351,2.08929 -3.278609,2.95259 -5.852674,3.14359 -11.859554,4.31367 -16.434116,3.20118 -2.36882,-0.57609 -2.66197,-0.54515 -4.212232,0.44443 -1.3580699,0.8669 -2.120064,1.7984 -1.550181,1.89503 0.1945973,0.033 2.684719,0.38838 5.53363,0.78972 9.286249,1.30822 15.560264,2.6637 21.640497,4.67534 1.780954,0.58922 4.609226,1.46679 6.28505,1.95015 8.513403,2.45552 21.294404,7.31857 32.820231,12.48781 0.346747,0.15556 0.07637,-0.16389 -0.626665,-0.7403 -4.603145,-3.77401 -6.160385,-5.13655 -6.427355,-5.62373 -0.274929,-0.50172 -0.167793,-0.50896 1.115328,-0.0753 1.857984,0.62788 11.947217,7.28731 15.901214,10.49566 8.594704,6.9739 15.894552,15.19431 20.869922,23.50179 1.69727,2.83396 5.49269,10.37626 7.37483,14.65533 0.84385,1.91851 1.59949,3.4737 1.6792,3.45596 0.0797,-0.0177 0.21716,-0.65476 0.30548,-1.41559 0.29323,-2.52593 -1.4907,-9.68722 -3.64556,-14.63457 -0.97757,-2.24439 -4.91901,-9.72528 -6.40846,-12.16332 -0.46855,-0.76694 -0.74847,-1.47482 -0.62203,-1.57305 0.77719,-0.60387 4.60657,3.88447 7.65886,8.97682 2.47675,4.13212 3.46658,6.71216 5.01265,13.06581 l 0.98107,4.03175 1.76318,0.48197 c 4.11189,1.124 15.33993,2.69128 18.32408,2.55779 l 1.45228,-0.065 -0.86615,-0.39338 c -4.36014,-1.98028 -6.53513,-8.95907 -5.58312,-17.91426 0.76347,-7.18166 2.77118,-12.47373 6.46357,-17.03718 0.8702,-1.0755 1.5666,-2.02553 1.54752,-2.11119 -0.12095,-0.54352 -6.88414,0.81339 -8.36481,1.67824 -0.2827,0.16512 -1.64923,1.69478 -3.03672,3.39925 -2.92486,3.59304 -9.90929,14.33039 -10.64665,16.36738 -0.32603,0.90066 -0.49476,1.15802 -0.64222,0.97954 -0.40869,-0.49466 -0.0244,-2.85014 0.85671,-5.25073 0.797,-2.17152 1.36938,-3.20081 4.66757,-8.39358 3.45096,-5.43239 4.00854,-6.19757 6.7964,-9.31746 7.12298,-7.97115 11.73462,-12.55852 20.17241,-20.0662 2.81554,-2.50517 5.0901,-4.68537 5.0546,-4.84489 -0.0671,-0.30149 -5.28396,-7.93653 -6.42419,-9.40202 l -0.65027,-0.83576 -2.90613,0.63782 c -3.3808,0.74201 -3.29525,0.82632 -2.70199,-2.66286 0.21168,-1.24499 0.38633,-2.56861 0.38811,-2.94136 0.003,-0.72592 -1.91572,-3.73279 -4.59281,-7.19576 -4.89434,-6.3311 -15.7113,-16.18684 -22.01884,-20.06217 l -1.89675,-1.1654 z m 20.40567,35.78691 c 0.52765,3.12492 0.40985,5.04224 -0.28274,4.60182 -0.32003,-0.20351 -0.94036,-4.54946 -0.84,-5.88489 0.0797,-1.06082 0.88172,-0.1443 1.12274,1.28307 z m 4.10757,3.09685 c 0.3293,2.29361 -0.63218,8.12926 -1.58667,9.63024 -0.58964,0.92723 -0.60083,-0.56103 -0.0429,-5.70382 0.30844,-2.84308 0.56647,-5.25407 0.57337,-5.35777 0.007,-0.10368 0.20054,-0.15043 0.43025,-0.10387 0.26738,0.0542 0.49262,0.6066 0.62593,1.53522 z M 48.002223,91.735032 c 0.320869,1.210427 -0.02033,2.573847 -0.558471,2.231638 -0.342141,-0.217572 -0.952048,-3.28238 -0.724437,-3.640309 0.261611,-0.411394 1.021674,0.423193 1.282908,1.408671 z m 2.39536,7.231387 c 1.470431,2.446871 2.969456,7.531861 2.457621,8.336751 -0.09976,0.15687 -0.221416,0.48292 -0.270421,0.72454 -0.04901,0.24162 -0.190405,0.37489 -0.314288,0.29611 -0.364275,-0.23165 -2.202826,-5.55294 -2.594608,-7.50952 -0.672274,-3.357467 -0.480532,-3.848441 0.721696,-1.847881 z m 54.924977,54.274171 c 3.28544,3.33295 7.95309,13.59404 8.0286,17.64959 0.027,1.4499 -0.41046,2.66624 -0.85682,2.38239 -0.12279,-0.0781 -0.16364,-0.23574 -0.0908,-0.35035 0.23194,-0.36474 -1.85436,-6.49178 -3.39251,-9.96306 -0.81623,-1.8421 -2.234,-4.71588 -3.15057,-6.38617 -2.60751,-4.75174 -2.73881,-5.5651 -0.53794,-3.3324 z m 25.8973,31.45152 c -0.44314,1.33842 -3.00578,5.47491 -3.28271,5.29881 -0.50876,-0.32353 1.39742,-4.66246 2.62513,-5.97542 0.89122,-0.95311 1.11944,-0.7183 0.65759,0.67662 z M 49.987556,153.70599 c -0.596761,0.11147 -10.507658,-2.11674 -11.717762,-2.63444 -1.667225,-0.71328 0.09176,-1.20117 2.980474,-0.82671 2.383182,0.30894 6.622474,1.68765 8.122768,2.64171 0.97089,0.6174 1.059969,0.73626 0.61452,0.81944 z m 20.465322,-45.72091 c -2.920431,-0.87998 -5.532658,-1.41381 -5.68855,-1.16253 -0.0481,0.0775 -0.296639,0.9956 -0.552317,2.04017 -0.255684,1.04458 -0.678119,2.39856 -0.938737,3.00886 -0.260633,0.6103 -0.476949,1.19322 -0.480718,1.29538 -0.0038,0.10211 2.057162,0.66311 4.579843,1.24656 2.522687,0.58345 4.796786,1.11662 5.053555,1.18482 0.34836,0.0925 0.527982,-0.0469 0.707717,-0.54929 0.68449,-1.91334 1.624688,-4.82193 1.627428,-5.03457 0.0061,-0.4743 -1.496997,-1.18235 -4.308221,-2.0294 z M 43.246823,96.773134 c -0.03611,0.05679 -0.210228,0.786944 -0.38692,1.622567 -0.296968,1.40437 -0.242876,1.678009 0.715025,3.617479 0.569967,1.15401 1.095809,2.08495 1.168544,2.06876 0.07275,-0.0162 -0.149506,-1.63413 -0.493901,-3.59542 -0.559776,-3.187998 -0.791401,-4.045739 -1.002748,-3.713386 z m -20.032963,-2.505655 -1.629132,0.921343 0.305209,1.080991 c 0.387776,1.373472 0.531532,1.451023 1.348202,0.727372 0.897736,-0.795502 1.569967,-0.512931 1.198583,0.503825 -0.155605,0.426022 -0.230821,0.882224 -0.16714,1.01378 0.140359,0.289971 2.146601,0.564857 2.304964,0.315825 0.195136,-0.30686 0.841861,-3.630162 0.970883,-4.989027 l 0.123787,-1.303746 -1.413119,0.404149 c -0.777215,0.222286 -2.146213,0.818754 -3.042237,1.325488 z m 127.79652,88.339531 c -2.03817,-0.40588 -5.31678,-0.20716 -7.93742,0.48112 l -2.51669,0.66097 -1.07065,1.98433 c -1.48928,2.76025 -2.21876,5.33369 -2.67331,9.431 -1.12879,10.17488 0.76546,15.45987 5.71276,15.93867 3.16124,0.30594 9.72605,-1.42252 13.07657,-3.44296 1.77615,-1.07106 2.27137,-1.51291 3.30684,-2.95041 0.69125,-0.95955 1.16175,-1.80659 1.08807,-1.95875 -0.0714,-0.14742 -1.27853,-0.21738 -2.68257,-0.15543 -4.05541,0.17892 -5.11544,0.092 -5.64102,-0.46269 -0.76709,-0.80953 -0.0378,-1.51979 2.18987,-2.13268 2.5256,-0.69486 5.15852,-2.38513 6.89855,-4.42869 1.79803,-2.11168 1.9674,-2.89893 0.78354,-3.64212 -0.46514,-0.29223 -1.38567,-0.6072 -2.04539,-0.70031 -1.55313,-0.21919 -5.38865,-0.0974 -7.73231,0.24548 -2.07578,0.3037 -2.75527,0.047 -2.61085,-0.98618 0.0806,-0.57672 0.34549,-0.87914 1.45517,-1.66142 1.65518,-1.16684 2.93599,-3.05514 2.91897,-4.30344 -0.0137,-1.00159 -0.75431,-1.56484 -2.52013,-1.91649 z M 12.123321,101.58649 c -1.135099,-0.38452 -2.8860478,-0.84836 -3.8909886,-1.03076 -2.5437648,-0.46171 -6.7000739,-0.32969 -8.77103681,0.2786 -1.97559369,0.58026 -4.76560349,2.06626 -4.87285149,2.59535 -0.060118,0.29659 2.7518206,3.3873 2.9770274,3.27216 0.041379,-0.0211 0.5375046,-0.35068 1.1026221,-0.73235 1.100011,-0.74291 3.971535,-1.61424 4.4070798,-1.33727 0.4592651,0.29205 -0.7701598,1.85354 -2.22080808,2.82063 -0.76109502,0.50739 -1.37131278,0.97868 -1.35604347,1.04728 0.0271898,0.12217 1.44338869,1.5218 9.70862475,9.59471 2.2530514,2.20063 4.2049374,4.10871 4.3374954,4.24017 0.359617,0.3566 3.351103,-1.5103 5.157842,-3.21885 1.89256,-1.78973 4.352231,-4.97385 5.359974,-6.93865 l 0.727596,-1.4186 -0.941652,-1.13077 c -2.825701,-3.39318 -7.532687,-6.62153 -11.724881,-8.04165 z m -24.729746,1.16486 c -0.628421,0.0721 -1.596947,0.93238 -5.811657,5.16206 -9.029782,9.06186 -16.705459,16.93812 -17.078608,17.52492 -0.20963,0.32965 -0.267872,0.99788 -0.136953,1.57132 0.250421,1.09687 -0.293329,0.53916 14.28058,14.64664 10.126265,9.80216 12.8327142,12.35457 13.6537646,12.87669 1.0251064,0.65188 2.0548152,0.73308 2.7466542,0.2166 0.5739901,-0.42851 4.40898602,-4.29417 15.9181742,-16.0455 5.639972,-5.75862 6.280218,-6.60052 5.94495,-7.81749 -0.101776,-0.36945 -2.014888,-2.40123 -4.867232,-5.16914 -3.8353745,-3.72187 -14.8188727,-14.60924 -20.6138487,-20.43344 -1.7882813,-1.7973 -3.1263823,-2.63702 -4.0358243,-2.53266 z m -2.025867,8.61345 c -0.558841,0.8788 -2.446624,1.93779 -2.558469,1.43521 -0.120206,-0.54007 1.298017,-1.75626 2.234533,-1.9162 0.690944,-0.11801 0.698095,-0.10739 0.323936,0.48099 z m 13.4566306,9.53967 c 1.9620386,2.00336 3.6274308,3.76661 3.7008743,3.91834 0.2459379,0.50806 -0.3383856,1.03163 -1.92418242,1.7241 -3.35790688,1.46628 -6.85330878,3.1964 -7.03498698,3.4821 -0.1046754,0.1646 -0.025122,0.72805 0.1767889,1.25211 1.1814641,3.06656 -1.6750441,6.81206 -5.6728284,7.43828 -4.540226,0.71119 -7.980199,-2.75241 -7.308143,-7.35834 0.539407,-3.69682 3.93265,-6.10208 7.694314,-5.45392 0.966674,0.16657 1.084914,0.11535 1.402188,-0.60738 0.1906021,-0.43409 0.6042926,-1.33083 0.9193854,-1.99273 0.3150789,-0.66189 0.9964045,-2.31174 1.5140243,-3.66632 1.0847086,-2.83862 1.5217108,-3.34897 2.3759523,-2.77478 0.3240414,0.21791 2.1945696,2.03518 4.1566136,4.03854 z M -17.64906,100.82365 c -1.717559,0.062 -3.013923,1.26842 -18.938102,17.62366 -2.554745,2.6239 -3.051344,3.62724 -2.529881,5.11143 0.365195,1.03942 0.60162,1.03613 1.538288,-0.0214 0.414747,-0.46828 3.036584,-3.139 5.826295,-5.93498 11.383911,-11.40949 14.665895,-14.72552 15.401163,-15.56095 0.751942,-0.85438 0.755549,-0.88208 0.138301,-1.06202 -0.348569,-0.10161 -0.994803,-0.17171 -1.436064,-0.15577 z M 82.139093,174.9812 C 72.608721,169.97413 51.177867,161.48197 41.59175,158.91397 l -2.612124,-0.69975 -0.744594,1.16159 c -1.465568,2.28566 -4.531813,5.65261 -8.239568,9.04748 -5.257102,4.81345 -7.57133,7.42701 -10.861428,12.26626 -7.526048,11.06973 -9.9028189,18.83692 -8.288141,27.08531 0.814788,4.16225 3.42713,8.97171 6.587974,12.12881 1.85897,1.85676 5.876839,4.25268 7.980421,4.75883 2.244196,0.53999 4.90294,0.45884 7.834624,-0.23913 l 2.771875,-0.65994 5.637234,3.85036 c 3.964146,2.7076 5.684606,3.99738 5.796817,4.34568 0.08776,0.27242 0.124452,1.42376 0.08152,2.55851 -0.133642,3.53264 1.086332,6.48488 3.763744,9.10795 3.351993,3.28395 7.537886,4.64693 12.362632,4.02543 3.930175,-0.50627 10.155618,-2.87371 13.788729,-5.24364 3.862554,-2.51959 7.938839,-6.22832 11.879342,-10.80819 4.150831,-4.82432 19.055243,-24.74532 19.064693,-25.48157 0.007,-0.55267 -2.9795,-6.30495 -4.54499,-8.7538 -3.877176,-6.06494 -7.912415,-11.0477 -12.960482,-16.00371 -3.619955,-3.55394 -4.256305,-4.01783 -8.750796,-6.37916 z m -24.004298,22.14386 c 0.02367,0.0966 1.976421,1.57272 4.339504,3.28044 6.753505,4.88051 9.98336,7.48399 10.469527,8.43912 0.60823,1.19495 0.605387,3.06731 -0.0066,4.3208 -0.699312,1.43242 -2.747547,2.70602 -4.73806,2.94617 -4.244367,0.51207 -8.10926,-1.26587 -15.067437,-6.93136 -3.400097,-2.76843 -5.408411,-5.3624 -6.168262,-7.96702 -0.678542,-2.32587 0.526106,-5.81186 2.372954,-6.86687 0.456908,-0.261 1.378372,-0.5216 2.047716,-0.57912 1.153644,-0.0991 1.359842,-0.0191 3.96232,1.53888 1.509936,0.90389 2.76468,1.72242 2.788306,1.81898 z m -6.533568,-0.0469 c -2.400203,0.61338 -2.37676,3.87658 0.04753,6.62586 2.03302,2.30553 8.655587,7.33563 11.322719,8.60003 3.363625,1.5946 6.848837,1.08683 7.103529,-1.03491 0.05183,-0.4318 -0.08741,-1.07649 -0.309436,-1.43264 -0.361421,-0.57975 -3.914744,-3.30447 -12.305087,-9.43562 -4.813679,-3.51756 -4.901648,-3.56744 -5.859252,-3.32272 z m -14.331168,0.6093 c 1.456952,2.15814 -0.100902,6.73872 -2.900139,8.52732 -2.308567,1.47509 -4.771483,1.36629 -6.109869,-0.26989 -1.366639,-1.67074 -1.009278,-5.07884 0.752844,-7.1796 2.740686,-3.26739 6.451947,-3.75182 8.257164,-1.07783 z M 74.97058,224.1447 c 1.934598,2.99374 -1.109152,8.33598 -5.278052,9.26381 -3.543804,0.7887 -5.726778,-1.8192 -4.641338,-5.54481 1.103592,-3.78793 5.458704,-6.37461 8.369788,-4.97115 0.664102,0.32015 1.256855,0.79914 1.549602,1.25215 z M 32.462094,156.09375 c -4.322107,-1.22359 -10.457262,-2.46098 -16.565162,-3.341 -4.345746,-0.62613 -4.997943,-0.64975 -5.432402,-0.19671 -0.425731,0.44395 -2.1278527,2.6527 -7.4063792,9.61092 -1.9046864,2.51079 -7.5911984,11.61005 -8.7598247,14.01703 -4.8766761,10.04431 -7.1541151,19.03735 -7.0100651,27.68099 0.209886,12.59352 4.2554212,23.03805 13.02904012,33.63756 5.88815678,7.11355 12.87668288,12.77915 20.79245988,16.85645 16.96648,8.73919 32.847963,9.53918 48.53934,2.44504 6.54447,-2.95878 14.586689,-8.55062 19.738078,-13.72411 2.039616,-2.04836 6.900369,-7.56613 9.11748,-10.34986 5.108041,-6.41349 13.718081,-17.98348 13.620881,-18.30343 -0.17032,-0.56061 -2.11805,-5.10959 -2.21385,-5.17051 -0.0557,-0.0354 -1.17933,1.47232 -2.49693,3.35057 -1.3176,1.87824 -2.66232,3.73923 -2.98827,4.13555 -0.32595,0.39629 -2.12183,2.7817 -3.99088,5.30087 -11.650259,15.7027 -17.881055,21.55523 -27.175549,25.52581 -7.85621,3.35615 -13.497393,3.67138 -19.224756,1.07426 -2.698596,-1.2237 -5.68333,-4.00312 -7.368177,-6.86134 -1.002511,-1.70069 -1.639262,-4.0482 -1.771136,-6.52966 l -0.130332,-2.45242 -4.76671,-3.07933 -4.766715,-3.07931 -2.306609,0.54322 c -4.228188,0.99578 -8.600886,0.27098 -12.894049,-2.13724 -12.112097,-6.79421 -15.8651841,-22.23769 -8.845859,-36.39969 2.981765,-6.01595 8.123774,-13.67747 11.577972,-17.25103 0.980744,-1.01463 3.471744,-3.38129 5.535563,-5.25925 2.473603,-2.25083 4.335712,-4.1655 5.464026,-5.61827 0.941402,-1.2121 1.942568,-2.45987 2.224806,-2.77282 0.379774,-0.4211 0.415857,-0.58873 0.138719,-0.64492 -0.205958,-0.0417 -1.855071,-0.49507 -3.66471,-1.00737 z m -19.233697,0.3995 c -0.0085,0.66637 -1.439606,3.22082 -1.708553,3.0498 -0.339921,-0.21616 -0.08841,-1.40021 0.487899,-2.29694 0.519633,-0.80783 1.226969,-1.24449 1.220654,-0.75286 z m -2.811598,0.19204 c -0.319981,1.70374 -3.3649862,6.60101 -3.8948633,6.26406 -0.6494483,-0.413 1.9036309,-5.53842 3.2025512,-6.42929 l 0.8302711,-0.56945 z m -6.6740269,10.5636 c -0.1887356,0.91648 -1.6210249,3.24944 -1.8899463,3.07843 -0.4967988,-0.31592 0.8251807,-3.27279 1.6335691,-3.65381 0.3323883,-0.15665 0.383525,-0.0419 0.2564025,0.57539 z m -9.0303724,21.03489 c -0.3746482,1.94156 -0.9704667,3.38808 -1.3932953,3.38266 -0.5135777,-0.007 -0.1003949,-2.03311 0.7377881,-3.61861 0.4316923,-0.81657 0.8255378,-1.45884 0.8751553,-1.42728 0.049617,0.0315 -0.049197,0.78002 -0.2196313,1.66324 z m -3.1166271,10.45203 c -0.2133948,1.41255 -0.4239076,1.68796 -0.8504599,1.11264 -0.3208804,-0.4328 0.2264733,-2.28988 0.7063854,-2.39669 0.2229243,-0.0496 0.2751816,0.41616 0.1440745,1.28405 z M -38.342536,131.2056 c -2.082093,2.29964 -6.46186,7.40284 -7.442292,8.67158 -2.475879,3.20392 -3.508963,8.26609 -2.575759,12.62135 0.415281,1.93811 0.833126,2.94677 1.996972,4.82062 0.809498,1.30332 2.000048,2.85557 2.645668,3.44944 3.82271,3.51631 9.296555,5.43664 13.669219,4.79541 3.039582,-0.44573 6.769302,-2.15156 9.816967,-4.48989 1.528094,-1.17245 6.261671,-5.8813 6.863425,-6.82759 0.135991,-0.21385 -0.242704,-0.71154 -1.193215,-1.5682 -0.765838,-0.69021 -1.526075,-1.2883 -1.689421,-1.32908 -0.163316,-0.0408 -1.460918,1.01811 -2.883516,2.35307 -4.969643,4.66354 -7.095692,5.98789 -10.698839,6.66447 -5.935011,1.11446 -11.785349,-2.79191 -13.112606,-8.75551 -0.990795,-4.45186 0.747853,-8.54383 6.129935,-14.42698 1.478788,-1.61646 2.667448,-3.03451 2.641472,-3.15123 -0.05215,-0.23434 -2.59519,-2.91876 -3.145673,-3.32057 -0.239909,-0.17508 -0.554914,-0.0232 -1.022337,0.49311 z m 4.899851,7.34878 c -5.608148,5.79117 -6.961341,8.31176 -6.400438,11.92213 0.400426,2.57746 2.940017,5.69826 5.216417,6.41025 2.764447,0.86463 6.24218,0.20059 8.766746,-1.67395 1.68887,-1.254 6.700921,-6.0046 6.787931,-6.43382 0.03916,-0.19296 -1.116311,-1.48064 -2.632863,-2.93417 -1.486424,-1.42465 -4.046874,-3.91548 -5.689904,-5.53515 -4.348579,-4.28681 -3.761407,-4.1164 -6.047889,-1.75529 z M 120.45318,86.796504 c 1.96705,1.381333 4.44432,3.143692 5.50505,3.916333 1.06073,0.772654 3.79786,2.681072 6.08252,4.240936 2.83614,1.936408 4.19025,2.982336 4.26849,3.297021 0.25099,1.009598 -0.86795,0.649671 -4.90111,-1.576525 -2.1664,-1.1958 -3.98998,-2.093827 -4.05242,-1.995638 -0.0624,0.0982 0.15534,0.365886 0.48397,0.594869 0.39094,0.272422 0.4349,0.363779 0.12723,0.2642 -0.25866,-0.08366 -0.59061,-0.338246 -0.7377,-0.56569 -0.14709,-0.227441 -0.74446,-0.866172 -1.32751,-1.419417 -1.96306,-1.86272 -0.87258,-1.953073 2.79938,-0.23195 l 1.682,0.788387 -2.09772,-1.385399 c -1.15373,-0.761996 -2.42377,-1.649264 -2.82225,-1.971796 -0.39849,-0.322499 -2.45586,-1.781294 -4.57194,-3.241712 -3.63356,-2.507713 -3.86801,-2.636019 -4.21802,-2.308295 -0.3292,0.308257 -0.34575,0.301529 -0.14806,-0.06014 0.12239,-0.223968 0.15253,-0.463478 0.0669,-0.532271 -0.0856,-0.06878 -0.36571,-0.293945 -0.62252,-0.500271 -0.25681,-0.206326 -0.52794,-0.279195 -0.60255,-0.161869 -0.0797,0.125403 -0.19011,0.04418 -0.26784,-0.19711 -0.0727,-0.225724 -0.45653,-0.67612 -0.85288,-1.000893 -1.16164,-0.951813 2.33454,1.327839 6.20695,4.047215 z m -7.25991,-4.400631 c -0.15898,0.226705 -0.23996,0.238325 -0.20123,0.02881 0.0357,-0.19288 -0.0691,-0.435877 -0.23282,-0.539994 -0.16373,-0.104112 -0.42823,-0.09594 -0.58777,0.01817 -0.23207,0.165973 -0.25811,0.149414 -0.13024,-0.08282 0.11694,-0.212409 -0.45472,-0.679804 -2.13078,-1.742128 -1.51837,-0.961994 -2.2237,-1.30979 -2.09208,-1.030697 0.15731,0.33362 0.1028,0.349584 -0.26231,0.07685 -0.25346,-0.189387 -0.36104,-0.392612 -0.23903,-0.45167 0.12204,-0.05904 0.009,-0.242706 -0.25103,-0.408098 -0.26009,-0.165393 -0.47468,-0.160758 -0.47688,0.0103 -0.002,0.171035 -0.11042,0.243331 -0.24043,0.160656 -0.13004,-0.0827 -0.17255,-0.250823 -0.0945,-0.373618 0.0781,-0.122803 -0.25989,-0.478828 -0.75107,-0.791175 -0.51148,-0.325257 -0.96115,-0.460836 -1.05242,-0.317308 -0.11115,0.174783 -0.19938,0.127057 -0.29164,-0.157725 -0.14806,-0.457147 -1.34668,-1.209616 -1.51246,-0.949466 -0.0587,0.09204 -0.21303,0.09969 -0.34308,0.017 -0.13004,-0.0827 -0.11046,-0.211341 0.0435,-0.285873 0.15395,-0.07456 0.11742,-0.238885 -0.0813,-0.365245 -0.22419,-0.142565 -0.3688,-0.08582 -0.38116,0.149556 -0.0159,0.303414 -0.0445,0.285218 -0.14311,-0.09101 -0.13747,-0.524744 -0.50497,-0.855627 -0.51005,-0.459244 -0.002,0.140209 -0.34591,0.02881 -0.7647,-0.247583 -0.41852,-0.276809 -0.698352,-0.60513 -0.621267,-0.730505 0.09281,-0.151534 0.03731,-0.188009 -0.165832,-0.10901 -0.371298,0.144341 -2.48686,-1.135722 -2.3174,-1.402204 0.06606,-0.103885 -0.0409,-0.190949 -0.237698,-0.193462 -0.458564,-0.0059 -5.06907,-2.868178 -4.732082,-2.93773 0.139028,-0.02868 2.069163,1.029921 4.289128,2.352531 2.950295,1.75774 3.992511,2.473586 3.873601,2.660563 -0.11801,0.185584 -0.0423,0.22906 0.2756,0.158305 0.31948,-0.0711 2.09044,0.953083 6.53341,3.778418 5.66274,3.601007 6.07626,3.902842 5.82902,4.25546 z m -3.66633,-1.888129 c -0.11525,0.05582 -0.32112,-0.04892 -0.45741,-0.232687 -0.34362,-0.463463 -0.23159,-0.540024 0.2566,-0.175339 0.22571,0.168653 0.31608,0.35225 0.20079,0.408059 z m 8.41447,5.929367 c -0.80803,0.246669 -0.88716,0.216924 -0.39449,-0.148352 0.28216,-0.209201 0.26807,-0.28533 -0.0552,-0.298404 -0.23874,-0.0097 -0.30164,-0.05366 -0.13953,-0.09821 0.16185,-0.04414 0.50995,0.01476 0.77355,0.130894 0.45561,0.200728 0.44653,0.221142 -0.184,0.413652 z m -1.9487,-1.320379 c -0.13499,0.129722 -0.14228,0.301458 -0.0161,0.381718 0.12619,0.08024 0.10345,0.20688 -0.0505,0.281413 -0.15395,0.07455 -0.4956,-0.01152 -0.75915,-0.19124 -0.44584,-0.304016 -0.44169,-0.319386 0.06,-0.221292 0.37068,0.0725 0.48908,0.0019 0.37881,-0.225903 -0.0882,-0.18225 -0.29068,-0.333041 -0.44993,-0.335064 -0.15922,-0.0021 -0.28746,-0.166205 -0.28489,-0.364895 0.003,-0.251488 0.16029,-0.214611 0.51726,0.121472 0.28194,0.265444 0.58852,0.445589 0.6813,0.400303 0.0928,-0.04528 0.0582,0.02376 -0.0769,0.153475 z m -4.99881,-3.429698 c -0.002,0.162461 -0.24901,0.276964 -0.54869,0.254458 -0.44697,-0.03359 -0.49364,-0.130886 -0.25968,-0.541342 0.15688,-0.275208 0.25374,-0.34404 0.21519,-0.152976 -0.0385,0.191109 0.028,0.409766 0.14785,0.485953 0.11981,0.07619 0.21964,-0.0014 0.2218,-0.172508 0.002,-0.171035 0.0542,-0.279063 0.11565,-0.240003 0.0614,0.03906 0.10993,0.203925 0.10784,0.366397 z m 11.04897,7.324165 c -0.16933,0.08198 -0.20154,0.21667 -0.0714,0.299398 0.13004,0.0827 0.16937,0.255819 0.0874,0.384714 -0.0965,0.151781 -0.23224,0.07992 -0.38518,-0.203936 -0.12988,-0.241068 -0.48094,-0.521045 -0.78016,-0.622181 -0.2992,-0.101147 -0.45775,-0.208605 -0.35229,-0.238841 0.10548,-0.03021 0.30384,-0.0094 0.44085,0.04635 0.13701,0.05573 0.501,0.120294 0.80888,0.14343 0.39685,0.02981 0.47018,0.08545 0.2519,0.191114 z m -2.57862,-1.645703 c -0.0781,0.122795 -0.28193,0.221463 -0.45298,0.219271 -0.17104,-0.0022 -0.24714,-0.104424 -0.16903,-0.227253 0.0781,-0.122795 0.28193,-0.221471 0.45298,-0.219279 0.17104,0.0022 0.24709,0.104509 0.16903,0.227261 z m -6.25977,-3.962178 c -0.0735,0.115546 -0.27195,0.208311 -0.44104,0.206137 -0.17631,-0.0023 -0.15675,-0.115675 0.0458,-0.265882 0.39439,-0.292405 0.59942,-0.26141 0.3952,0.05974 z m 12.44082,8.048161 c -0.0295,0.04633 -0.28735,0.113974 -0.57306,0.150258 -0.43432,0.05515 -0.45821,0.02057 -0.14576,-0.211083 0.3191,-0.236583 0.87788,-0.189304 0.71882,0.06083 z m -5.78162,-3.481434 c -0.002,0.171035 -0.11041,0.24333 -0.24043,0.16065 -0.13003,-0.08269 -0.17254,-0.250818 -0.0945,-0.373612 0.0781,-0.122795 0.18628,-0.19509 0.24043,-0.160656 0.0542,0.03445 0.0967,0.202561 0.0945,0.373618 z m -1.33958,-0.85186 c -0.15395,0.07455 -0.32427,0.107339 -0.37842,0.07291 -0.0542,-0.03445 -0.0346,-0.163072 0.0435,-0.285867 0.0781,-0.122795 0.24837,-0.155601 0.3784,-0.07291 0.13005,0.0827 0.11047,0.21134 -0.0435,0.285872 z m -5.01189,-3.040388 c -0.0859,0.42394 -0.68228,0.56405 -0.76768,0.180357 -0.0268,-0.120512 0.0653,-0.146647 0.20468,-0.05801 0.13941,0.08865 0.29148,-0.0263 0.33792,-0.25544 0.0464,-0.22916 0.13466,-0.384689 0.19609,-0.345625 0.0614,0.03907 0.0744,0.254463 0.029,0.478714 z m 10.67453,6.975732 c -0.002,0.182432 -0.0826,0.349141 -0.17834,0.370447 -0.0957,0.02138 -0.13499,-0.154101 -0.0872,-0.389862 0.0992,-0.489411 0.2719,-0.476782 0.26553,0.01941 z m -9.60011,-6.125686 c -0.002,0.171036 -0.11043,0.243339 -0.24043,0.160665 -0.13005,-0.0827 -0.17255,-0.250832 -0.0945,-0.373627 0.0781,-0.122795 0.18628,-0.19509 0.24044,-0.160651 0.0542,0.03445 0.0967,0.202562 0.0945,0.373613 z M 59.663001,50.048755 c -0.01373,1.069833 -2.788047,-0.127452 -3.331907,-1.43792 -0.281071,-0.677283 -0.268678,-0.708829 0.239466,-0.609554 0.85891,0.1678 3.097546,1.649978 3.092446,2.047465 z M 112.2127,83.67948 c -0.002,0.142577 -0.14523,0.168931 -0.31858,0.0587 -0.17339,-0.110261 -0.21028,-0.251279 -0.082,-0.313401 0.12836,-0.06209 0.27168,-0.08853 0.31858,-0.0587 0.0469,0.02983 0.0838,0.170842 0.082,0.313409 z m 10.97216,7.479071 c 0.18434,0.477266 0.13888,0.616401 -0.22903,0.700933 -0.36899,0.0848 -0.47867,0.01555 -0.55922,-0.35325 -0.0804,-0.367718 -0.0416,-0.379892 0.19582,-0.06141 0.17157,0.23015 0.36222,0.293266 0.45329,0.150051 0.14645,-0.230291 -0.0936,-0.541034 -0.57174,-0.740028 -0.11245,-0.04674 -0.0753,-0.14754 0.0825,-0.223923 0.36263,-0.175538 0.35418,-0.182632 0.62844,0.527524 z M 110.78683,83.35306 c -0.20216,-0.03802 -0.38969,-0.168408 -0.41671,-0.289759 -0.027,-0.121341 0.13837,-0.09031 0.36761,0.06909 0.25328,0.176115 0.27253,0.262663 0.0491,0.220663 z m 14.96204,10.770694 c -0.25057,-0.08054 -0.60221,-0.304151 -0.78142,-0.496917 -0.17915,-0.192851 0.0259,-0.126949 0.45564,0.146354 0.42978,0.273304 0.57636,0.4311 0.32578,0.350563 z m -6.71913,-3.495458 c -0.21224,0.04724 -0.48975,-0.04185 -0.61667,-0.197966 -0.13175,-0.162111 0.0338,-0.198907 0.3859,-0.08589 0.43311,0.139046 0.50183,0.223488 0.23077,0.283852 z m -2.56083,-1.150494 c -0.25324,-0.08152 -0.55228,-0.276894 -0.66443,-0.434368 -0.11225,-0.1573 0.0949,-0.09057 0.46041,0.148241 0.3657,0.238479 0.45735,0.367506 0.20412,0.285967 z m -1.35162,-0.700281 c -0.0624,0.09814 -0.63351,-0.168645 -1.26914,-0.59285 -1.20077,-0.801388 -1.02803,-0.814762 0.4947,-0.03833 0.48833,0.24903 0.83682,0.53308 0.77444,0.631176 z m 85.97153,77.585959 c 0.85572,1.69432 2.37909,6.86414 2.19025,7.43303 -0.25474,0.7674 -1.00549,1.0696 -1.64574,0.66246 -0.93443,-0.59422 -2.99096,-7.47372 -2.47616,-8.28327 0.6268,-0.98566 1.37577,-0.91285 1.93165,0.18778 z m -10.59383,2.7438 c 0.33882,1.42389 0.5345,9.06965 0.27122,10.59759 -0.0904,0.52476 -0.33438,1.09645 -0.54215,1.2704 -0.48009,0.40198 -1.56553,0.25484 -1.97413,-0.26761 -0.46501,-0.59454 -0.51255,-11.85899 -0.0531,-12.58149 0.83556,-1.31394 1.85569,-0.87844 2.29817,0.98111 z m -16.60818,-8.05184 c 0.0535,0.42138 -0.3643,1.03459 -2.19855,3.22676 -2.91167,3.47983 -3.94877,4.49534 -4.72657,4.62817 -1.36621,0.23334 -1.40747,-1.47361 -0.0739,-3.0588 1.32078,-1.57004 5.02509,-5.08418 5.69216,-5.39993 0.74004,-0.35031 1.21349,-0.13156 1.30688,0.6038 z m 7.6614,5.49334 c 0.018,1.32047 -4.66329,11.94672 -5.69276,12.92221 -0.53736,0.50918 -1.19012,0.49845 -1.57893,-0.026 -0.57825,-0.77994 -0.2134,-1.93768 2.37047,-7.52196 2.23903,-4.83901 2.74103,-5.76767 3.3479,-6.19334 0.87818,-0.616 1.53851,-0.2678 1.55332,0.81905 z M -54.581005,132.25089 c 1.078121,1.10481 0.927694,2.29126 -0.325874,2.57026 -0.578136,0.12867 -0.932684,-0.0251 -2.27323,-0.98614 -3.173194,-2.27481 -3.783888,-2.83799 -3.738105,-3.44727 0.06045,-0.80431 0.831564,-1.18263 1.898943,-0.93161 0.981667,0.23087 3.457915,1.79016 4.438277,2.79475 z m -4.870849,15.06242 c -0.110103,1.46502 -1.198027,1.78741 -4.815851,1.42712 -2.327078,-0.23176 -3.683628,-0.68049 -3.877633,-1.28266 -0.232935,-0.72303 0.339511,-1.46252 1.261518,-1.62964 1.152769,-0.20896 6.438515,0.24694 6.999546,0.60371 0.261757,0.16645 0.456346,0.56312 0.43242,0.88147 z m 3.684206,14.34101 c 0.123282,0.55393 -0.405395,1.39771 -1.140094,1.81969 -0.792685,0.45524 -7.949611,3.28555 -9.100322,3.59885 -1.147775,0.3125 -1.94557,-0.12848 -1.9889,-1.09937 -0.06563,-1.47028 0.579287,-1.88464 6.273917,-4.03099 3.880992,-1.46278 5.674688,-1.54957 5.955432,-0.28816 z m 20.589631,16.24437 c 0.331625,1.17007 -0.184649,9.94872 -0.6259,10.6426 -0.435122,0.68425 -1.746305,0.76625 -2.269052,0.1419 -0.200606,-0.2396 -0.380499,-1.03591 -0.399759,-1.76957 -0.07072,-2.69416 0.477638,-9.22562 0.819703,-9.76353 0.726231,-1.14203 2.052878,-0.74077 2.475008,0.7486 z m -11.583951,-4.98803 c 0.142983,0.83719 -0.486621,1.92885 -3.96395,6.87301 -2.653574,3.77292 -2.834539,3.97831 -3.762462,4.27032 -1.351547,0.42532 -2.12591,-0.10456 -1.90996,-1.30694 0.129106,-0.71888 0.690688,-1.65332 2.624414,-4.36692 3.551128,-4.98329 4.418163,-6.0358 5.152625,-6.25487 0.981216,-0.29266 1.729173,0.0233 1.859333,0.7854 z M 123.8678,284.81807 c 0.99601,0.86701 4.31345,4.427 4.60087,4.93725 0.30584,0.54296 -0.28375,1.65652 -0.95632,1.8062 -0.65583,0.14596 -1.96874,-0.80439 -4.68078,-3.38818 -2.4459,-2.33024 -2.82283,-2.95703 -2.28596,-3.80128 0.59332,-0.93301 1.94674,-0.75132 3.32219,0.44601 z m -10.05143,9.66968 c 1.40579,3.10712 2.63615,6.92269 2.46703,7.65075 -0.22537,0.97025 -0.90929,1.32854 -1.75863,0.9213 -0.78828,-0.37796 -0.99875,-0.75996 -2.5303,-4.5924 -1.52299,-3.811 -1.53913,-5.31689 -0.0597,-5.56955 0.89532,-0.15292 1.21546,0.1176 1.8816,1.5899 z M 83.903948,280.26037 c 0.158108,0.71042 -0.412999,1.33703 -1.821885,1.99896 -1.970217,0.92564 -5.409068,2.0916 -6.03107,2.04486 -1.291471,-0.0971 -1.943975,-1.24473 -1.106408,-1.94599 0.815314,-0.68264 5.492309,-2.63978 6.783574,-2.83866 1.358604,-0.20926 2.013999,0.0139 2.175789,0.74083 z m 17.774392,13.65645 c 0.15858,1.0227 -0.0273,2.2063 -1.26315,8.04505 -0.64771,3.05998 -1.385191,5.88997 -1.638847,6.28886 -0.893955,1.40578 -2.48389,1.50475 -2.66924,0.16614 -0.09456,-0.68294 2.050823,-11.621 2.655102,-13.53679 0.337436,-1.06979 0.50237,-1.3129 1.11461,-1.64283 0.870525,-0.46916 1.670215,-0.1675 1.801565,0.67959 z M 91.388502,290.2669 c -0.0651,0.86623 -1.392799,2.81158 -4.356167,6.38264 -3.046455,3.67118 -3.113066,3.73164 -4.126744,3.74546 -1.050067,0.0143 -1.426561,-0.29529 -1.438664,-1.18305 -0.009,-0.66253 0.2163,-1.0499 1.697566,-2.91824 5.301335,-6.68671 5.87347,-7.29399 6.805949,-7.22391 0.872601,0.0656 1.465486,0.56608 1.41806,1.1971 z"
       id="path248" /></g></svg>
