<?xml version="1.0" encoding="UTF-8" standalone="no"?>
<!-- Created with Inkscape (http://www.inkscape.org/) -->

<svg
   width="186.19823mm"
   height="206.34534mm"
   viewBox="0 0 186.19823 206.34534"
   version="1.1"
   id="svg342"
   inkscape:export-filename="pengu-eyes-closed.png"
   inkscape:export-xdpi="96"
   inkscape:export-ydpi="96"
   inkscape:version="1.2.2 (b0a8486541, 2022-12-01)"
   sodipodi:docname="pengu-eyes-closed.svg"
   xml:space="preserve"
   xmlns:inkscape="http://www.inkscape.org/namespaces/inkscape"
   xmlns:sodipodi="http://sodipodi.sourceforge.net/DTD/sodipodi-0.dtd"
   xmlns="http://www.w3.org/2000/svg"
   xmlns:svg="http://www.w3.org/2000/svg"><sodipodi:namedview
     id="namedview344"
     pagecolor="#ffffff"
     bordercolor="#000000"
     borderopacity="0.25"
     inkscape:showpageshadow="2"
     inkscape:pageopacity="0.0"
     inkscape:pagecheckerboard="0"
     inkscape:deskcolor="#d1d1d1"
     inkscape:document-units="mm"
     showgrid="false"
     inkscape:zoom="0.7500982"
     inkscape:cx="767.89946"
     inkscape:cy="391.2821"
     inkscape:window-width="1854"
     inkscape:window-height="1011"
     inkscape:window-x="66"
     inkscape:window-y="32"
     inkscape:window-maximized="1"
     inkscape:current-layer="layer1" /><defs
     id="defs339" /><g
     inkscape:label="Layer 1"
     inkscape:groupmode="layer"
     id="layer1"
     transform="translate(35.956593,38.97552)"><path
       style="fill:#141628;stroke-width:0.264583;fill-opacity:1"
       d="m 27.706539,167.29709 c -5.410975,-0.1457 -8.421341,-0.34157 -10.043496,-0.65346 -0.285173,-0.0548 -1.594861,-0.28509 -2.910416,-0.51168 -6.1401011,-1.05756 -8.3776559,-2.00596 -9.8435534,-4.17226 -1.5782951,-2.33241 -1.7360767,-4.55227 -0.7504509,-10.55816 0.4169833,-2.54087 0.6614583,-5.09059 0.6614583,-6.89857 v -2.868 L 3.2987269,140.9718 c -0.8367448,-0.36474 -2.47297311,-1.14494 -3.63606026,-1.73377 -7.81388394,-3.9559 -13.54907464,-10.69991 -16.49976564,-19.40207 -0.894498,-2.63805 -2.002269,-8.33822 -1.812933,-9.32866 l 0.121438,-0.63528 -2.150141,0.16921 c -4.365321,0.34352 -7.278616,-0.82979 -10.765901,-4.3359 -2.447973,-2.4612 -3.731919,-4.65791 -4.243277,-7.25987 -0.652486,-3.320049 -0.07037,-10.566728 1.246609,-15.518876 3.571663,-13.430289 9.327499,-25.70168 16.520387,-35.221306 l 2.369267,-3.135675 -0.173297,-7.345987 c -0.272735,-11.56113 0.452454,-18.896867 2.819149,-28.5175504 2.066475,-8.40027204 5.8207245,-16.5322301 10.5570387,-22.8672576 1.96112865,-2.623095 7.031556,-7.855132 9.6725738,-9.980874 8.1036105,-6.522545 17.7085675,-10.847652 28.6755465,-12.912582 8.799939,-1.656908 13.427292,-2.040805 22.795719,-1.891194 8.848979,0.141317 14.225381,0.824955 21.043905,2.675842 7.96703,2.162652 16.238149,6.398954 22.472405,11.509926 2.26404,1.856107 6.7269,6.43624 8.37999,8.600201 6.63711,8.6882607 11.4692,21.2737304 13.05362,33.998958 0.0815,0.654844 0.20598,1.607344 0.27655,2.116667 0.37894,2.735104 0.45206,4.315058 0.57805,12.490352 l 0.13745,8.918477 1.88787,2.234493 c 14.32016,16.949418 20.81181,29.100484 23.20152,43.428552 1.57569,9.447443 -1.41495,17.499284 -7.58859,20.431134 -1.91481,0.90934 -2.22877,0.97695 -4.58305,0.98705 -1.81733,0.008 -2.84487,-0.11894 -3.65726,-0.45107 -1.51984,-0.62135 -1.56364,-0.60818 -1.76412,0.53028 -0.37715,2.14175 -2.69133,8.31452 -4.38927,11.70781 -2.75306,5.50192 -5.22614,8.97549 -9.11193,12.79823 -3.27373,3.22059 -7.39625,6.17513 -11.45224,8.20761 l -1.91823,0.96123 v 1.55677 c 0,1.43333 0.07,1.61821 0.88268,2.33177 0.56365,0.49489 2.03998,1.17181 4.08451,1.87281 3.49082,1.19689 7.97428,3.13714 9.55501,4.13501 1.34389,0.84836 3.15991,2.93053 3.8002,4.35715 0.70522,1.57127 0.54216,3.58294 -0.40662,5.01665 -0.89699,1.35543 -3.28319,2.55309 -6.29344,3.15875 -1.84723,0.37166 -3.59099,0.43873 -10.16714,0.39107 -7.179715,-0.052 -15.422663,-0.40436 -17.468557,-0.74667 -5.212492,-0.87213 -7.907189,-1.79843 -9.476414,-3.25751 -1.904415,-1.77074 -2.067055,-3.29733 -0.947031,-8.88917 0.48069,-2.3999 0.821319,-4.41316 0.756952,-4.47391 -0.06437,-0.0608 -3.927028,0.0125 -8.583695,0.16268 -8.033123,0.25914 -32.101284,-0.0872 -35.652604,-0.51308 -2.419143,-0.29009 -1.358495,1.03725 3.311597,4.14427 3.347503,2.22709 5.845717,4.459 6.561494,5.86204 0.624182,1.2235 0.66951,3.30902 0.101521,4.67082 -0.853228,2.04568 -2.942259,3.66327 -5.885413,4.55723 -2.641007,0.80218 -4.896159,0.94718 -11.828261,0.76051 z m 11.163403,-4.39786 c 2.16286,-0.71273 3.256389,-1.50411 3.256389,-2.35662 0,-0.9447 -2.445983,-3.27307 -5.738138,-5.46223 -3.722095,-2.47505 -5.462516,-4.51686 -6.518227,-7.64701 -0.173475,-0.51435 -0.398251,-0.55681 -5.999885,-1.13356 -4.280043,-0.44068 -8.794292,-1.33442 -12.170833,-2.40959 -2.7645628,-0.88031 -2.8005779,-0.87299 -2.6876511,0.54687 0.051858,0.65203 -0.093332,1.81289 -0.3226461,2.57969 -0.2293144,0.7668 -0.4705218,1.79169 -0.5360168,2.27754 -0.1172104,0.86945 -0.1107281,0.8758 0.4116943,0.40301 0.2919281,-0.26419 1.1284876,-1.37608 1.8590207,-2.47086 1.464114,-2.19413 1.782855,-2.59213 1.276268,-1.59364 -0.430207,0.84795 -2.551004,3.90136 -3.3078764,4.7625 -0.5497777,0.62552 -0.836713,1.82955 -1.3241311,5.55625 -0.1837134,1.40464 -0.3589549,1.56238 2.7565403,-2.48111 1.0789152,-1.40028 2.0043272,-2.54597 2.0564762,-2.54597 0.05215,0 -0.56271,0.93836 -1.36635,2.08523 -0.8036377,1.14688 -1.4611617,2.20044 -1.4611617,2.34125 0,0.14081 -0.5197634,0.78003 -1.155028,1.42049 -1.0587169,1.06739 -1.1357398,1.23451 -0.9236921,2.00426 0.1467935,0.53288 0.5739818,1.05153 1.168945,1.41924 0.5156835,0.31871 0.9673325,0.53613 1.0036598,0.48315 0.7648126,-1.11538 3.692819,-4.99112 3.770641,-4.99112 0.05893,0 -0.691005,1.19878 -1.666529,2.66397 -1.438206,2.1601 -1.7012098,2.70981 -1.3905254,2.90636 0.2107354,0.13332 0.5817764,0.24422 0.8245344,0.24645 0.24276,0.002 0.609539,0.0686 0.815065,0.14745 0.242257,0.093 0.716089,-0.37231 1.347258,-1.32292 0.535466,-0.80647 1.041601,-1.46631 1.124744,-1.46631 0.151664,0 -0.840576,1.76447 -1.25725,2.23573 -0.513551,0.58083 -0.102087,0.84636 2.038821,1.31576 4.618315,1.01256 6.877473,1.18071 14.804564,1.10192 6.886356,-0.0685 7.840872,-0.13162 9.31132,-0.61618 z m 77.571378,-2.03125 c 4.14382,-0.90284 4.84526,-1.89984 3.03596,-4.31518 -0.96522,-1.28854 -2.45781,-2.03096 -7.55014,-3.75545 -5.56721,-1.88532 -6.89597,-2.48565 -8.04513,-3.63481 -1.00127,-1.00127 -1.42709,-2.26971 -1.4292,-4.25731 -8e-4,-0.76398 -0.073,-1.38906 -0.16044,-1.38906 -0.0874,0 -1.36734,0.3492 -2.844267,0.776 -3.85821,1.11495 -8.457385,2.03363 -12.905751,2.57792 l -3.870433,0.47358 -0.181843,2.91489 c -0.10001,1.60319 -0.334711,3.72261 -0.521552,4.70981 -0.186843,0.9872 -0.249089,1.85092 -0.138324,1.91937 0.110765,0.0685 0.648023,-0.67972 1.193908,-1.66261 0.935019,-1.68356 2.401359,-3.95197 2.181384,-3.37459 -0.05544,0.14552 -0.722183,1.50419 -1.481648,3.01925 -0.759465,1.51507 -1.380847,2.94495 -1.380847,3.17751 0,0.50619 1.03696,1.21553 1.319442,0.90257 0.109297,-0.12109 0.819187,-1.08336 1.577533,-2.13839 0.758349,-1.05503 1.424089,-1.91823 1.479426,-1.91823 0.05534,0 -0.550259,1.03665 -1.345771,2.30368 -1.154187,1.83829 -1.369772,2.34655 -1.067163,2.5159 0.823643,0.46093 7.064465,1.32095 11.102515,1.52998 6.729601,0.34837 18.691461,0.13519 21.032341,-0.37483 z m -35.818115,-17.0781 c 1.891771,-0.15637 4.21349,-0.39552 5.159375,-0.53145 0.945885,-0.13593 2.315104,-0.32218 3.042708,-0.41391 2.165723,-0.273 8.565102,-1.66898 10.980208,-2.39525 3.009374,-0.90498 8.721104,-3.71207 10.847914,-5.33133 3.19713,-2.43414 3.06145,-2.73798 -0.56893,-1.2741 -5.14321,2.07391 -12.737502,3.45862 -22.524244,4.10698 -3.570928,0.23657 -30.254239,0.18382 -33.130781,-0.0655 -0.873125,-0.0757 -2.480468,-0.21535 -3.571875,-0.31038 -14.162814,-1.2333 -24.62713,-5.53176 -30.239578,-12.42163 -4.06764,-4.99346 -6.081781,-11.82449 -6.44363,-21.85381 C 14.013367,98.836925 14.419786,87.606823 14.854219,84.514084 16.119744,75.504757 15.76547,66.426827 13.418957,47.737002 11.947641,36.018077 11.465044,25.834114 12.086325,19.61532 c 0.725297,-7.259931 1.76824,-10.7255516 4.635156,-15.4022762 2.970117,-4.84507379 6.179116,-7.9650351 10.588183,-10.2943977 2.074664,-1.0960708 6.191795,-2.1668792 9.260417,-2.4085073 4.6277,-0.3643921 10.886974,0.863981 15.047235,2.9529987 3.883511,1.9500532 7.888933,6.01875215 9.933905,10.0908457 0.396962,0.7904586 0.960199,1.4971712 1.294519,1.6242797 0.720249,0.2738385 15.66921,0.053157 16.447648,-0.2428028 0.367366,-0.1396736 0.705072,-0.6902503 1.002903,-1.6350747 0.593492,-1.8827777 1.904103,-4.01952088 4.025485,-6.5629234 2.041919,-2.448134 3.277359,-3.3234285 6.526249,-4.6237736 5.346327,-2.1398283 11.138435,-1.7018529 16.001595,1.2099766 2.3576,1.4116209 6.89201,6.9385391 8.76467,10.6831288 0.43665,0.8731249 1.36057,3.1353124 2.05317,5.0270832 0.6926,1.891771 1.42382,3.856302 1.62493,4.365625 l 0.36566,0.926042 -0.16928,-1.190625 c -0.46607,-3.278124 -2.76149,-11.4493227 -4.45054,-15.8429935 -1.82369,-4.7439103 -5.21911,-10.4044745 -8.58939,-14.3195065 -5.40569,-6.279446 -13.913464,-12.176006 -21.56347,-14.945196 -5.384049,-1.948944 -11.753075,-3.398525 -18.285081,-4.161657 -3.738158,-0.436727 -17.249209,-0.420273 -21.166667,0.02577 -10.241841,1.166156 -19.451534,3.808913 -26.58324,7.628157 -5.532747,2.962955 -9.0695832,5.620314 -13.6393871,10.247781 -3.1583497,3.198204 -5.16242289,5.802979 -7.9849793,10.3784025 -3.1421282,5.093454 -5.322824,10.3853535 -7.1079518,17.2488835 -0.6291188,2.418858 -0.7685878,3.040806 -1.0464298,4.666395 -0.07462,0.436562 -0.194154,1.091406 -0.265636,1.455208 -0.529604,2.695297 -1.445236,12.435417 -1.169011,12.435417 0.09251,0 0.42056,-0.868535 0.729003,-1.930075 0.551172,-1.896903 1.560306,-4.41992 1.7678456,-4.41992 0.058113,0 -0.1323843,0.68461 -0.4233256,1.521354 -0.675693,1.943283 -1.755399,8.333925 -1.843942,10.914063 -0.08463,2.466247 -0.01804,4.624321 0.137904,4.468389 0.06475,-0.06475 0.377325,-1.424046 0.694618,-3.020661 0.317294,-1.596615 0.688552,-3.08153 0.825019,-3.299812 0.171812,-0.274814 0.197426,-0.159853 0.08328,0.373793 -0.688583,3.219268 -1.220186,6.8146 -1.366718,9.24333 l -0.173164,2.870247 -2.115619,2.686003 c -5.148644,6.536748 -9.498238,14.247881 -13.081392,23.19121 -2.477026,6.182508 -2.753931,7.147388 -4.178366,14.559616 -1.079836,5.619065 -1.213831,6.706034 -1.135184,9.208505 0.08151,2.593637 0.165719,2.992718 0.980144,4.645327 1.076978,2.185381 3.582328,4.816281 5.459031,5.732611 1.168686,0.57063 1.677646,0.64597 4.365625,0.64629 l 3.042708,2.7e-4 2.513542,-1.23607 c 7.984511,-3.92646 14.7308832,-12.121142 19.2082523,-23.331864 1.9186869,-4.804129 2.9950568,-8.749924 3.9781453,-14.583229 0.5143553,-3.051993 1.0484273,-5.760665 1.1868308,-6.019271 0.408231,-0.762791 1.2027059,-0.582703 1.381895,0.313243 0.2492533,1.246259 -0.2771564,8.324339 -0.8665766,11.65198 -0.6404477,3.615713 -1.2761066,5.995394 -2.6503206,9.921875 -2.2881193,6.537732 -3.3187322,8.733459 -6.02533238,12.836974 -1.46095242,2.21497 -2.33719952,4.02359 -4.29424032,8.863542 -2.2758691,5.62844 -5.7603522,15.03226 -6.4544235,17.41901 -0.265639,0.91347 -0.225081,1.1474 0.389909,2.24896 0.3775127,0.67618 0.7875772,1.22943 0.9112514,1.22943 0.1236768,0 0.7250139,-1.72641 1.3363046,-3.83646 1.9552999,-6.74929 5.1984221,-15.44599 9.8083845,-26.301976 1.2415228,-2.923651 2.4891417,-5.732449 2.7724893,-6.241772 0.6752378,-1.21375 0.6111346,-1.040577 -1.9098207,5.159375 -5.2447612,12.898883 -11.0998316,29.858303 -11.0998316,32.151153 0,0.3695 0.1919367,0.94585 0.4265242,1.28077 0.4704927,0.67172 0.325882,0.96577 3.9882974,-8.10981 0.663276,-1.64362 1.2548288,-2.93952 1.3145637,-2.87979 0.1063811,0.10638 -1.4637702,4.44538 -3.0330933,8.38173 -0.4351152,1.0914 -0.8683625,2.46259 -0.9627738,3.04707 -0.151757,0.93952 -0.08318,1.14746 0.5916242,1.79397 l 0.7632806,0.73126 0.4080563,-1.00021 c 0.2244328,-0.55012 1.0320946,-2.54803 1.7948063,-4.4398 1.4104964,-3.49849 5.6759792,-12.56771 5.9109107,-12.56771 0.070903,0 -0.7361185,1.87524 -1.79338553,4.16719 -1.05726441,2.29195 -2.48470737,5.59594 -3.17209217,7.34219 -0.6873822,1.74625 -1.6050101,3.86831 -2.0391702,4.71569 -0.4777528,0.93247 -0.7501969,1.8203 -0.6901233,2.24896 0.088511,0.6316 0.1671082,0.55074 0.726104,-0.74695 0.8411368,-1.95267 3.4033089,-6.94526 3.73402218,-7.27604 0.14549438,-0.14552 -0.63326428,1.58089 -1.73057608,3.83646 -1.0973117,2.25557 -1.99703,4.34901 -1.9993768,4.65207 -0.0041,0.5287 1.2974531,1.778 2.542442,2.44039 0.5305664,0.28229 0.5723017,0.22405 0.7387802,-1.03093 0.15643754,-1.1793 2.4955076,-6.98331 2.722753,-6.75607 0.049109,0.0491 -0.4354698,1.44586 -1.07684625,3.1039 -1.54788392,4.00146 -1.67030662,4.7432 -0.89933461,5.44895 0.32898291,0.30114 0.86153359,0.62735 1.18344686,0.72489 0.5246502,0.15898 0.7114196,-0.0738 1.8024475,-2.24614 0.6694328,-1.33291 1.2721563,-2.36848 1.3393869,-2.30125 0.067231,0.0672 -0.4273391,1.16413 -1.0990447,2.43756 -0.6717057,1.27342 -1.1210952,2.41388 -0.9986434,2.53436 0.1224519,0.12047 0.7927896,0.46248 1.4896386,0.76001 1.1840765,0.50557 1.2781624,0.511 1.43755,0.083 0.231349,-0.62127 2.2371949,-3.27737 2.3726934,-3.14187 0.1154985,0.1155 -0.8522785,1.68878 -1.7644428,2.86839 -0.656328,0.84877 -0.6925918,0.81936 2.3585276,1.91265 1.6164136,0.5792 2.0037345,0.63953 2.1722718,0.33837 0.112807,-0.20158 0.453866,-0.65344 0.757904,-1.00415 l 0.552796,-0.63764 -0.409963,0.84676 c -0.560393,1.15746 -0.515216,1.58138 0.185351,1.73923 0.327422,0.0738 1.964531,0.50434 3.638021,0.9568 4.423193,1.1959 7.812693,1.8037 12.581672,2.25612 4.204193,0.39884 11.60041,0.88104 16.125619,1.05132 5.041556,0.18971 33.772657,-0.0886 37.041666,-0.35881 z M 7.3545089,137.16617 c 0.2150745,-0.79725 0.8682169,-2.11667 1.0477923,-2.11667 0.1508839,0 -0.5097833,1.63499 -0.9344766,2.31261 -0.244221,0.38966 -0.2626836,0.35773 -0.1133157,-0.19594 z m -4.6533435,-5.35049 c 0.2601198,-0.78847 0.7904242,-2.02053 1.1784542,-2.7379 0.8031638,-1.48486 0.7658867,-1.33185 -0.3912606,1.6061 -0.9807257,2.49002 -1.4649502,3.18622 -0.7871936,1.1318 z m -5.2813134,-15.4193 c 0,-0.14553 0.1154139,-0.44318 0.2564791,-0.66146 0.1410652,-0.21828 0.2564791,-0.27782 0.2564791,-0.13229 0,0.14552 -0.1154139,0.44317 -0.2564791,0.66145 -0.1410652,0.21829 -0.2564791,0.27782 -0.2564791,0.1323 z m 3.18564675,-7.67292 c 0,-0.14552 0.17015619,-0.56224 0.37812397,-0.92604 0.20796778,-0.3638 0.37812398,-0.5424 0.37812398,-0.39688 0,0.14552 -0.1701562,0.56224 -0.37812398,0.92604 -0.20796778,0.36381 -0.37812397,0.5424 -0.37812397,0.39688 z M 1.3804977,106.9484 c 0,-0.33003 1.3101876,-3.02907 1.7070626,-3.51661 0.2369158,-0.29104 -0.00468,0.3638 -0.5368767,1.45521 -0.9589399,1.96655 -1.1701859,2.33868 -1.1701859,2.0614 z M -10.758032,42.460533 c 1.0360417,-3.753782 1.797576,-5.946429 1.9962649,-5.747742 0.060632,0.06063 -0.068932,0.571589 -0.2879223,1.135456 -0.2189876,0.563867 -0.7572163,2.427288 -1.1960626,4.140933 -0.714419,2.78974 -1.190029,4.160322 -1.443693,4.160322 -0.04771,0 0.37143,-1.660036 0.931413,-3.688969 z m 0.7654973,2.00175 c -0.00677,-0.387099 2.1579178,-4.176509 2.3029545,-4.031472 0.074295,0.0743 -0.291891,0.885383 -0.8137472,1.80241 -1.1723741,2.060133 -1.4840109,2.526596 -1.4892073,2.229062 z m 0.6744176,-14.000755 c 0.099359,-0.260938 0.2473034,-0.407781 0.328766,-0.326319 0.081463,0.08146 1.693e-4,0.294955 -0.1806522,0.474433 -0.2613078,0.25936 -0.2916979,0.22897 -0.1481138,-0.148114 z M 88.16383,136.09603 c 7.790611,-0.45687 14.71261,-1.61185 19.31458,-3.22277 7.77891,-2.723 14.25893,-8.27273 17.85566,-15.29227 1.02146,-1.99353 3.85112,-10.2888 4.37526,-12.82628 0.79688,-3.85789 1.05243,-7.149027 1.05212,-13.549469 -2.2e-4,-4.416486 -0.13726,-7.091513 -0.5122,-9.998448 -0.72559,-5.62551 -1.75815,-11.551843 -2.5423,-14.591488 -1.12281,-4.352385 -4.818,-16.78755 -5.50643,-18.530411 -1.19019,-3.013125 -1.48035,-4.835945 -1.88914,-11.868031 -0.63192,-10.8704 -0.92055,-13.199945 -2.27059,-18.326382 -1.3516,-5.132327 -3.67062,-11.6347481 -4.92128,-13.7990159 -0.86173,-1.4912102 -3.84909,-5.05577471 -5.64481,-6.7354529 -1.59403,-1.4910329 -4.4905,-2.8981505 -6.84195,-3.3238519 -3.100715,-0.5613479 -7.220841,0.2242714 -10.686367,2.0376568 -2.828009,1.4797987 -6.018141,5.4117107 -7.345357,9.0533298 C 81.802133,7.3151563 81.546342,7.7235274 80.78627,8.0204005 80.394298,8.173499 76.249428,8.3552228 71.230497,8.4393524 60.558613,8.6182398 61.091902,8.7521613 59.456539,5.4826416 56.666322,-0.09573281 52.291384,-3.4711361 45.399337,-5.3629334 43.053962,-6.0067149 42.35632,-6.0787715 38.554456,-6.069908 c -3.836575,0.00894 -4.45651,0.077573 -6.614584,0.7322317 -2.908091,0.8821817 -5.284374,2.1383149 -8.241133,4.35637251 -2.740411,2.05575959 -4.375891,4.06328289 -6.27943,7.70788919 -1.599549,3.0625785 -2.555229,6.0320956 -3.108007,9.6572916 -0.402228,2.637888 -0.514253,16.620066 -0.158986,19.84375 0.200263,1.817192 0.30752,2.7296 1.104138,9.392708 0.217474,1.81901 0.469082,4.081198 0.559131,5.027083 0.09005,0.945886 0.332361,3.029479 0.538474,4.630208 1.194287,9.275104 1.486205,13.44584 1.34261,19.182292 -0.07832,3.128698 -0.268959,6.700573 -0.423651,7.9375 -0.47168,3.77159 -1.045242,11.181233 -0.952352,12.303125 0.04819,0.582083 0.105942,3.141927 0.128329,5.688537 0.03945,4.48786 0.393504,7.97815 1.242226,12.24587 1.723737,8.66766 6.647966,14.69075 15.063597,18.4251 4.475075,1.98577 13.160912,3.82902 21.400897,4.54156 7.253785,0.62725 26.878049,0.91255 34.008115,0.49442 z M 68.849247,37.608376 c -0.07276,-0.06834 -2.096823,-0.194463 -4.497917,-0.280276 -6.603148,-0.23599 -8.658254,-0.810109 -9.878078,-2.759554 -2.111515,-3.374482 -0.93775,-7.544731 2.400877,-8.530039 2.515123,-0.742273 13.219358,-0.995037 23.616784,-0.557673 4.939004,0.207759 6.408129,0.57309 7.891161,1.962322 1.535428,1.438312 1.797675,4.008263 0.641652,6.287995 -0.910908,1.796349 -2.335469,2.821622 -4.595138,3.307178 -1.616845,0.347424 -15.283931,0.847502 -15.579341,0.570047 z m 15.478125,-3.050744 c 3.009902,-0.814205 3.677785,-4.867066 1.00171,-6.07859 -0.885278,-0.400788 -2.304191,-0.463021 -12.207492,-0.535432 -12.807539,-0.09365 -15.196827,0.07467 -16.108722,1.134808 -1.152564,1.339938 -0.580014,4.221451 1.001268,5.039165 0.517843,0.267784 1.943021,0.521731 3.658865,0.651954 3.990147,0.302826 21.35189,0.14043 22.654371,-0.211905 z M 38.686747,28.12713 c -2.32688,-0.389744 -5.03107,-1.811173 -6.230609,-3.275055 -0.928232,-1.132784 -1.04189,-1.435565 -1.131028,-3.013109 -0.08658,-1.532289 -0.027,-1.819021 0.471758,-2.270395 0.792689,-0.717372 1.247333,-0.3615 2.384927,1.866789 0.852448,1.669751 1.070097,1.89611 2.51876,2.619539 2.145606,1.071473 4.647133,1.215983 7.268157,0.419873 2.699141,-0.819841 3.842223,-1.951379 4.356944,-4.312947 0.195548,-0.897178 1.014491,-1.387125 1.702821,-1.018743 0.983279,0.526235 0.918268,3.389148 -0.113218,4.985829 -1.888363,2.923074 -6.929848,4.718235 -11.228512,3.998219 z m 58.004178,-0.473091 c -3.409815,-1.269113 -5.861677,-4.666802 -5.570644,-7.71956 0.07962,-0.835136 0.155308,-0.904769 0.983462,-0.904769 0.99931,0 1.202208,0.242144 1.627023,1.941714 0.373346,1.493647 2.11196,3.254235 3.772287,3.819964 1.687131,0.574863 4.241857,0.447212 5.650287,-0.282326 1.36765,-0.708414 2.59836,-2.174058 3.12607,-3.722809 0.67068,-1.968331 1.73439,-2.705455 2.52662,-1.750875 0.45715,0.550825 0.15466,3.274912 -0.50785,4.573542 -0.67637,1.325787 -2.67747,3.141202 -4.20951,3.818895 -1.81886,0.804572 -5.53827,0.918311 -7.397745,0.226224 z M -10.931464,121.35731 c 0.368371,-2.00439 2.8106235,-8.8255 5.2748574,-14.73249 1.3921343,-3.33706 2.5031964,-6.0918 2.4690255,-6.12164 -0.034171,-0.0298 -1.1059583,0.9182 -2.3817474,2.10676 l -2.3196179,2.16101 -1.6818822,4.35751 c -0.9250364,2.39662 -2.0689834,5.30747 -2.5421004,6.46855 -0.47312,1.16107 -0.860219,2.37797 -0.860219,2.7042 0,0.6956 1.377995,4.04829 1.663893,4.04829 0.107495,0 0.2775,-0.44648 0.377791,-0.99219 z m -0.252886,-9.85573 c 0.969981,-2.54661 1.9322094,-4.97695 2.1382881,-5.40076 0.509389,-1.04757 0.2893986,-1.14907 -0.6950657,-0.3207 -0.4538744,0.38191 -0.9417054,0.69438 -1.0840664,0.69438 -0.380323,0 -1.52513,2.73589 -2.101329,5.02181 -0.523706,2.07766 -0.700696,5.33491 -0.265539,4.88684 0.134261,-0.13825 1.037728,-2.33495 2.007712,-4.88157 z m 151.87865,-7.10649 c 1.7706,-0.83764 3.49468,-2.58426 4.49531,-4.554064 1.11365,-2.192303 1.50223,-4.319968 1.47693,-8.086886 -0.0473,-7.043608 -2.09676,-14.054799 -6.91508,-23.656409 -1.60866,-3.205646 -5.75268,-9.408829 -8.91794,-13.349271 -1.28582,-1.600729 -2.84002,-3.61441 -3.45378,-4.474843 -1.20442,-1.688512 -1.34556,-1.659995 -0.70328,0.142098 0.22694,0.636759 1.23012,4.151227 2.22928,7.809928 2.40621,8.811001 3.65112,14.887548 4.68106,22.848858 0.58527,4.524034 0.65028,16.047024 0.11232,19.908179 -0.3044,2.18477 -0.3036,2.64495 0.005,3.0171 0.61415,0.74001 1.87091,1.13061 3.67195,1.14124 1.35664,0.008 2.05726,-0.1495 3.31797,-0.74593 z"
       id="path293" /></g></svg>
