<?xml version="1.0" encoding="UTF-8" standalone="no"?>
<!-- Created with Inkscape (http://www.inkscape.org/) -->

<svg
   width="185.52513mm"
   height="205.92177mm"
   viewBox="0 0 185.52513 205.92177"
   version="1.1"
   id="svg5"
   xml:space="preserve"
   inkscape:version="1.2.2 (b0a8486541, 2022-12-01)"
   sodipodi:docname="pengu-eyes-open.svg"
   inkscape:export-filename="pengu-eyes-open.png"
   inkscape:export-xdpi="96"
   inkscape:export-ydpi="96"
   xmlns:inkscape="http://www.inkscape.org/namespaces/inkscape"
   xmlns:sodipodi="http://sodipodi.sourceforge.net/DTD/sodipodi-0.dtd"
   xmlns="http://www.w3.org/2000/svg"
   xmlns:svg="http://www.w3.org/2000/svg"><sodipodi:namedview
     id="namedview7"
     pagecolor="#ffffff"
     bordercolor="#000000"
     borderopacity="0.25"
     inkscape:showpageshadow="2"
     inkscape:pageopacity="0.0"
     inkscape:pagecheckerboard="0"
     inkscape:deskcolor="#d1d1d1"
     inkscape:document-units="mm"
     showgrid="false"
     inkscape:zoom="0.7500982"
     inkscape:cx="369.28498"
     inkscape:cy="417.94528"
     inkscape:window-width="1854"
     inkscape:window-height="1011"
     inkscape:window-x="66"
     inkscape:window-y="32"
     inkscape:window-maximized="1"
     inkscape:current-layer="layer1" /><defs
     id="defs2" /><g
     inkscape:label="Layer 1"
     inkscape:groupmode="layer"
     id="layer1"
     transform="translate(-7.2624049,-39.109379)"><path
       style="fill:#141628;stroke-width:0.264583;fill-opacity:1"
       d="m 66.447398,244.86846 c -12.708292,-0.72256 -17.613153,-2.40353 -19.310826,-6.61815 -0.590531,-1.46604 -0.446204,-9.52516 0.254746,-14.22498 0.309576,-2.07568 0.562864,-3.88153 0.562864,-4.01302 0,-0.13148 -0.553569,-0.45047 -1.230151,-0.70886 -5.156975,-1.96947 -11.325539,-6.61464 -14.902594,-11.22223 -0.505563,-0.65122 -0.98593,-1.24356 -1.067483,-1.31632 -0.08155,-0.0728 -0.575802,-0.78714 -1.098333,-1.5875 -2.595186,-3.97506 -4.650695,-9.30749 -5.472662,-14.19727 l -0.482169,-2.86835 -2.756114,-0.17718 c -2.960463,-0.19032 -3.636431,-0.34481 -5.633003,-1.28741 -3.764468,-1.77723 -6.3246102,-4.92708 -7.4517987,-9.16823 -2.0933118,-7.87631 1.4524063,-23.71775 8.4691927,-37.83838 2.895142,-5.82619 6.658113,-11.90274 9.797396,-15.82111 1.091565,-1.36246 1.439085,-1.99061 1.317414,-2.38125 -0.351023,-1.127 -0.460603,-15.25476 -0.150313,-19.37975 0.867892,-11.537789 3.922895,-22.70901 8.328535,-30.45492 0.525251,-0.923483 0.955001,-1.71609 0.955001,-1.761344 0,-0.07161 1.736034,-2.766687 2.706105,-4.201046 1.492528,-2.206871 4.951142,-6.158669 7.710757,-8.810281 8.937154,-8.587377 20.949056,-14.38349 34.694594,-16.741213 4.917786,-0.843529 8.989258,-1.045268 19.446874,-0.963575 8.40692,0.06567 10.13144,0.150553 13.31942,0.655574 11.73711,1.859332 21.40961,5.951447 30.15367,12.757033 3.2105,2.498764 7.88512,7.394349 9.62892,10.084072 0.40466,0.624165 0.8005,1.194376 0.87966,1.267137 0.49734,0.457165 2.43448,3.732014 3.83788,6.488125 2.72945,5.360352 5.23673,12.503216 6.47395,18.443323 1.37092,6.58201 2.16632,16.399215 2.09879,25.904295 l -0.0388,5.45971 1.28523,1.31816 c 6.21204,6.3712 10.76882,12.34968 14.98317,19.65784 6.27707,10.88519 9.02171,19.64673 9.03019,28.82646 0.004,4.40825 -0.39894,6.47992 -1.80875,9.29797 -1.19387,2.38639 -2.10249,3.52893 -3.80898,4.78959 -2.72076,2.00995 -5.85261,2.53831 -9.72392,1.64049 -0.97596,-0.22634 -1.85424,-0.31563 -1.95174,-0.19843 -0.0975,0.1172 -0.45919,1.22512 -0.80376,2.46204 -3.51947,12.63406 -11.58557,23.4842 -22.00982,29.6066 -1.26367,0.74218 -2.60745,1.46724 -2.98618,1.61123 -0.68437,0.2602 -0.68813,0.27756 -0.61283,2.834 l 0.0758,2.5722 0.92604,0.31471 c 0.50933,0.17308 2.47386,0.81039 4.36563,1.41624 6.54923,2.09744 10.77535,4.7071 11.68505,7.21563 0.87794,2.42097 0.12803,5.62553 -1.63031,6.96668 -2.4014,1.83164 -5.76641,2.29208 -16.59603,2.27085 -15.0922,-0.0296 -21.21036,-0.82757 -24.47468,-3.19224 -1.71252,-1.24054 -2.05695,-2.26323 -2.05695,-6.10756 0,-1.81902 0.16642,-4.41088 0.36982,-5.7597 0.2034,-1.34883 0.30952,-2.51271 0.23583,-2.5864 -0.0737,-0.0737 -3.15714,0.0351 -6.85211,0.2418 -4.57726,0.25603 -11.71734,0.36357 -22.405939,0.33744 l -15.687819,-0.0383 0.0774,0.66126 c 0.06201,0.52976 0.592228,0.95749 2.666357,2.15097 4.63287,2.66581 7.309263,4.83919 8.292118,6.73364 1.440516,2.7766 0.182444,6.65661 -2.622314,8.0875 -2.764507,1.41034 -10.453407,2.03853 -19.001998,1.55248 z m 15.049441,-4.08931 c 2.31839,-0.55118 3.499008,-1.41825 3.499008,-2.56975 0,-1.63962 -0.922385,-2.6177 -4.894791,-5.19036 -6.878399,-4.45469 -6.814526,-4.39607 -6.958504,-6.38654 l -0.11203,-1.5488 -1.888691,-0.17986 c -5.486456,-0.52247 -11.017504,-1.52941 -15.421922,-2.80758 -1.476925,-0.4286 -2.867787,-0.77928 -3.090807,-0.77928 -0.289782,0 -0.520927,0.54738 -0.810024,1.91823 -0.714026,3.38581 -0.954008,4.81021 -0.947266,5.6224 0.0036,0.43656 -0.06948,1.65695 -0.16246,2.71198 -0.09559,1.08468 -0.06565,1.91823 0.06891,1.91823 0.130879,0 0.690192,-0.60574 1.242912,-1.34609 1.083522,-1.45134 1.413695,-1.86605 2.298671,-2.88725 0.763736,-0.88129 0.358008,-0.22814 -1.832409,2.94987 -1.616763,2.34571 -1.678495,2.49422 -1.536213,3.69557 0.155059,1.30925 0.646634,2.35515 1.101498,2.34362 0.146896,-0.004 0.778301,-0.81196 1.403125,-1.79609 0.624821,-0.98412 1.439735,-2.14194 1.810922,-2.57291 l 0.674883,-0.7836 -0.562692,0.92604 c -1.838407,3.02553 -2.66228,4.49027 -2.66228,4.73321 0,0.32357 0.63849,0.68114 1.646156,0.92189 0.636844,0.15216 0.834591,0.0187 1.710121,-1.15402 1.222912,-1.63804 1.732626,-1.76354 0.625184,-0.15393 -0.443553,0.64468 -0.806461,1.27895 -0.806461,1.40948 0,0.37358 3.073424,0.84795 9.657291,1.49054 0.582084,0.0568 3.975365,0.0739 7.540625,0.038 5.048691,-0.0509 6.908006,-0.16653 8.407241,-0.52296 z m -29.573907,-12.6829 c 0,-0.0549 0.20836,-0.2633 0.463021,-0.46302 0.419645,-0.32911 0.429003,-0.31975 0.0999,0.0999 -0.345644,0.44073 -0.562917,0.58089 -0.562917,0.36312 z m 1.5875,-2.11666 c 0,-0.0549 0.20836,-0.2633 0.463021,-0.46302 0.419645,-0.32911 0.429003,-0.31975 0.0999,0.0999 -0.345644,0.44073 -0.562917,0.58089 -0.562917,0.36313 z m 102.764078,13.05737 c 3.37809,-0.31602 5.81106,-1.03555 6.24533,-1.847 0.35358,-0.66066 0.31763,-1.85476 -0.0766,-2.54493 -0.92989,-1.62789 -4.00555,-3.21446 -10.38422,-5.35665 -2.58736,-0.86893 -5.01308,-1.80906 -5.3905,-2.08916 -1.05272,-0.7813 -1.33953,-1.59912 -1.34378,-3.83172 -0.003,-1.46409 -0.0985,-2.04938 -0.33462,-2.04655 -0.18191,0.002 -1.28323,0.30127 -2.4474,0.66463 -3.21474,1.00338 -8.08889,1.94156 -12.32695,2.37268 -2.09695,0.21332 -3.88275,0.3902 -3.96844,0.39308 -0.23176,0.008 -0.88432,4.47725 -0.68307,4.6785 0.0951,0.0951 0.0398,0.33309 -0.12274,0.52897 -0.16256,0.19587 -0.35765,1.44508 -0.43354,2.77601 -0.15612,2.73816 -5.3e-4,2.83494 1.28873,0.80188 1.0794,-1.70202 0.95955,-1.03045 -0.14214,0.79655 l -0.90867,1.50689 0.53167,0.67592 c 0.70817,0.90029 0.99315,0.8562 2.04416,-0.31626 l 0.88942,-0.99219 -0.69099,0.97453 c -0.38004,0.53599 -0.69098,1.08432 -0.69098,1.2185 0,0.22944 2.63028,0.861 5.29166,1.27059 3.61918,0.55699 19.05769,0.7957 23.65367,0.36573 z M 118.9948,221.59644 c 12.34238,-0.78969 18.8527,-1.70628 23.94479,-3.37119 3.33525,-1.09048 6.97197,-2.77761 9.43598,-4.37749 2.32853,-1.51191 5.999,-4.43608 5.808,-4.62708 -0.0811,-0.0811 -1.37128,0.45085 -2.86707,1.18211 -6.36841,3.11337 -13.81826,4.73023 -24.68003,5.35637 -8.49795,0.48988 -26.97184,0.21175 -35.321873,-0.53177 -19.005012,-1.69228 -29.141189,-6.79607 -34.326556,-17.28415 -1.839108,-3.71984 -2.96776,-8.20834 -3.52281,-14.00978 -0.447578,-4.67811 -0.179626,-15.95348 0.551478,-23.20606 0.467712,-4.63974 0.544912,-6.63977 0.418719,-10.84791 -0.209788,-6.99578 -0.383077,-8.81086 -2.412341,-25.26771 -1.774068,-14.38727 -1.89616,-24.50654 -0.379878,-31.485416 2.204289,-10.145503 6.477582,-16.542549 14.006806,-20.967943 1.442736,-0.847987 5.226166,-2.091388 7.460352,-2.451801 2.999664,-0.483899 9.318532,-0.222964 11.897675,0.491305 3.158328,0.874673 4.743531,1.53671 7.085509,2.959163 3.891357,2.363502 7.080519,5.617797 8.870869,9.052033 l 0.86375,1.656826 8.37618,0.04627 c 9.49834,0.05248 8.35143,0.323184 9.72415,-2.295231 3.3577,-6.404718 6.87933,-9.981763 11.54001,-11.721589 1.26282,-0.47141 2.09608,-0.567168 4.95754,-0.569719 3.06716,-0.0027 3.64971,0.07322 5.3802,0.701434 2.90579,1.054886 4.68831,2.220484 7.20398,4.710708 2.79357,2.765319 4.62817,5.712814 6.73061,10.813523 0.797,1.933599 2.51334,7.301931 2.51334,7.861178 0,0.206414 0.11906,0.375298 0.26458,0.375298 0.32853,0 0.34104,0.202017 -0.14981,-2.418167 -1.67541,-8.943332 -5.04381,-17.737108 -9.3078,-24.299557 -9.28268,-14.28641 -24.77756,-22.792229 -44.89751,-24.64622 -4.26498,-0.393004 -17.492226,-0.142473 -21.844876,0.413753 -15.447152,1.974001 -27.812308,7.582085 -37.454992,16.98731 -9.056954,8.833921 -14.781817,20.28903 -17.171801,34.359756 -0.930997,5.481116 -1.543394,13.590726 -0.978024,12.951356 0.122245,-0.13824 0.620392,-1.58875 1.106995,-3.22335 0.486603,-1.6346 0.925579,-2.93115 0.975503,-2.88123 0.08833,0.0883 -0.881425,4.50798 -1.690682,7.70531 -0.520751,2.05745 -0.799098,7.54062 -0.382792,7.54062 0.163833,0 0.297879,-0.15939 0.297879,-0.3542 0,-0.19481 0.290692,-1.29614 0.645985,-2.4474 0.355293,-1.15125 0.779836,-2.61122 0.94343,-3.24437 0.540655,-2.09246 0.566648,-0.9369 0.0297,1.31994 -1.395998,5.86744 -2.013641,9.46442 -1.682078,9.79598 0.549981,0.54998 0.887267,-0.0701 2.219544,-4.08043 0.688404,-2.0722 1.257168,-3.64858 1.263915,-3.50306 0.03085,0.66536 -1.833745,7.58455 -2.175317,8.07221 -0.21105,0.30131 -0.911386,1.10864 -1.556303,1.79407 -1.308698,1.39089 -3.751643,4.52907 -4.223596,5.42557 -0.168847,0.32073 -0.397473,0.64306 -0.508059,0.71628 -0.110587,0.0732 -1.176493,1.7401 -2.368684,3.70417 -2.335001,3.84679 -6.143122,11.41612 -7.254163,14.41895 -0.376897,1.01865 -0.791977,2.09021 -0.922401,2.38125 -1.304176,2.91023 -2.946593,8.66149 -3.966819,13.89063 -2.1031168,10.77944 -0.70051,16.35444 4.82309,19.17052 1.86618,0.95143 2.276842,1.05636 4.517588,1.15436 3.555529,0.15551 6.141233,-0.66773 9.685006,-3.08353 2.414326,-1.64585 6.275504,-5.4862 8.689266,-8.6424 3.721835,-4.86661 7.446338,-13.12552 9.456922,-20.97029 0.831773,-3.24536 2.226728,-11.74407 2.226728,-13.56627 0,-0.60262 0.120208,-0.78531 0.516731,-0.78531 0.777793,0 1.067599,1.47275 1.069293,5.43401 0.0046,10.64733 -3.068066,20.65827 -9.12944,29.74473 -1.267754,1.90046 -2.624852,4.30447 -3.028696,5.36512 -2.702327,7.09744 -5.062886,13.42218 -6.531821,17.50099 l -1.703925,4.73132 0.606534,1.28328 c 0.333592,0.7058 0.739068,1.28539 0.901054,1.28795 0.161989,0.003 0.682017,-1.09665 1.155615,-2.44272 0.473602,-1.34606 1.455471,-3.9952 2.181929,-5.88697 2.919666,-7.6031 3.394178,-8.85463 4.51417,-11.90625 1.769345,-4.82092 4.511606,-11.77202 4.606649,-11.67698 0.09987,0.0999 -1.574874,4.84067 -2.931323,8.29784 -0.52691,1.34294 -0.95802,2.5121 -0.95802,2.59814 0,0.16517 -2.132012,6.1008 -2.664221,7.41733 -0.927611,2.29463 -3.026095,8.08121 -4.227753,11.65804 l -1.050814,3.12783 0.761505,1.05123 c 0.418825,0.57817 0.878332,1.09016 1.021122,1.13776 0.142791,0.0476 0.65264,-1.07826 1.132996,-2.50191 0.480359,-1.42365 1.196375,-3.30283 1.591149,-4.17595 0.394774,-0.87313 0.809133,-1.88516 0.920797,-2.24896 0.111665,-0.3638 0.706927,-1.91161 1.322803,-3.43958 0.615879,-1.52797 1.266563,-3.25438 1.445969,-3.83646 0.608463,-1.97416 2.193891,-6.23971 2.285235,-6.14836 0.129969,0.12996 -2.98691,9.56973 -3.733656,11.30773 -0.343882,0.80037 -1.294493,3.30068 -2.112468,5.55625 -0.817975,2.25558 -1.674101,4.60527 -1.9025,5.22156 -0.408117,1.10119 -0.403095,1.13647 0.29137,2.04696 1.351481,1.77189 1.568217,1.70592 2.408161,-0.73289 0.411048,-1.1935 1.211736,-3.3011 1.779304,-4.68354 0.945719,-2.30353 3.641418,-9.71781 3.641418,-10.0154 0,-0.0698 0.06008,-0.0669 0.133511,0.007 0.155599,0.1556 -2.374286,7.72807 -4.33456,12.97424 -0.74536,1.99475 -1.355201,3.91951 -1.355201,4.27723 0,0.43975 0.333672,0.91467 1.030261,1.46638 0.566645,0.44879 1.132192,0.81299 1.256771,0.80933 0.124582,-0.004 0.571368,-1.06508 0.992859,-2.35873 0.908291,-2.78772 2.499016,-6.87804 2.523628,-6.48914 0.0095,0.15048 -0.637529,2.23002 -1.437894,4.62119 -0.800365,2.39118 -1.455208,4.47158 -1.455208,4.62312 0,0.28086 2.20962,1.72688 2.638787,1.72688 0.129783,0 0.317616,-0.26789 0.417407,-0.59531 0.585708,-1.92175 2.317623,-6.81906 2.387002,-6.74968 0.08346,0.0835 -0.72753,2.93958 -1.688394,5.94613 -0.388421,1.21537 -0.446246,1.70674 -0.22185,1.88516 0.666305,0.52978 2.089787,1.1323 2.396789,1.0145 0.179152,-0.0687 0.662932,-1.17869 1.075065,-2.46654 0.412136,-1.28785 0.798079,-2.20003 0.857652,-2.02705 0.05958,0.17297 -0.196826,1.28045 -0.569777,2.46105 -0.372954,1.18061 -0.678098,2.24828 -0.678098,2.37261 0,0.12433 0.543742,0.41133 1.208317,0.63777 l 1.208318,0.41172 0.389535,-0.98216 c 0.214244,-0.54019 0.495882,-1.22028 0.625859,-1.51132 0.409062,-0.91596 0.316624,0.20426 -0.11866,1.43798 l -0.390798,1.10764 0.911466,0.38083 c 1.267949,0.52979 1.403395,0.49479 1.853935,-0.47906 l 0.397825,-0.85989 -0.143028,0.9845 c -0.149233,1.0272 -0.122862,1.05164 1.481126,1.37277 0.209722,0.042 0.559906,0.14881 0.778188,0.23737 2.034616,0.82554 11.760802,2.41433 17.197915,2.80931 2.255573,0.16386 4.636823,0.34114 5.291667,0.39395 2.582434,0.2083 35.062254,-0.0885 39.290624,-0.35907 z M 45.316453,202.66386 c 0,-0.14552 0.115414,-0.44318 0.25648,-0.66146 0.141065,-0.21828 0.256479,-0.27781 0.256479,-0.13229 0,0.14552 -0.115414,0.44318 -0.256479,0.66146 -0.141066,0.21828 -0.25648,0.27781 -0.25648,0.13229 z m 1.05023,-32.99651 c 0,-0.28543 0.803899,-2.06078 0.933143,-2.06078 0.07276,0 -0.05171,0.44037 -0.276593,0.9786 -0.396537,0.94904 -0.65655,1.37762 -0.65655,1.08218 z m 85.063537,43.92824 c 12.32094,-0.61161 21.19849,-3.04596 27.64896,-7.58174 7.1351,-5.01719 11.82696,-13.99252 13.92257,-26.63332 0.74961,-4.52171 0.67928,-16.22906 -0.13194,-21.96042 -0.95323,-6.73472 -2.71867,-14.96988 -4.25406,-19.84375 -0.27506,-0.87312 -1.57023,-5.15937 -2.87817,-9.525 l -2.37807,-7.9375 -0.17119,-4.49791 c -0.59419,-15.61196 -3.62979,-28.275934 -8.52435,-35.561989 -2.36939,-3.527095 -6.18922,-6.589527 -9.62101,-7.713364 -2.68053,-0.877813 -7.00887,-0.895969 -9.3501,-0.03922 -3.77803,1.382535 -7.2472,4.651544 -9.63156,9.075862 -1.79406,3.328968 -2.47851,4.43267 -2.83331,4.568819 -0.69865,0.2681 -16.90915,0.164341 -17.72694,-0.113464 -0.60675,-0.206113 -1.10188,-0.799481 -2.10166,-2.518635 -3.18458,-5.475961 -7.994655,-9.054652 -14.602578,-10.864293 -2.340806,-0.641054 -3.074776,-0.716743 -7.108256,-0.733028 -3.918387,-0.01582 -4.804727,0.06244 -6.879167,0.607462 -7.601415,1.997114 -13.005825,7.208046 -16.086501,15.510596 -1.651926,4.452014 -2.311818,8.356782 -2.491764,14.744514 -0.179268,6.36367 0.06077,9.22312 2.049436,24.41382 1.772436,13.53901 2.504321,22.3282 2.236258,26.85521 -0.260993,4.40761 -0.442801,6.66859 -0.851016,10.58333 -0.667531,6.40152 -0.592775,17.03654 0.154913,22.03864 1.15806,7.74753 3.312867,12.57058 7.510068,16.8096 6.413256,6.47716 16.933057,9.49664 36.053607,10.34842 6.139,0.27348 22.25696,0.25472 28.04583,-0.0326 z m -29.19789,-98.68808 c -3.606206,-0.50405 -5.594817,-2.50928 -5.594817,-5.64156 0,-2.15059 0.958176,-3.76193 3.042709,-5.11685 0.984628,-0.63999 1.334728,-0.69854 5.027078,-0.84069 2.18282,-0.084 8.31454,-0.14719 13.62605,-0.14034 l 9.65729,0.0125 1.45521,0.68307 c 1.01059,0.47438 1.69772,1.03334 2.24895,1.82946 0.72341,1.0448 0.79375,1.33768 0.79375,3.305 0,1.90762 -0.0839,2.28541 -0.72168,3.24914 -0.98844,1.49364 -2.58756,2.36984 -4.93193,2.70233 -2.32102,0.32918 -22.18967,0.29524 -24.60261,-0.042 z m 25.75831,-2.55568 c 1.20849,-0.51982 2.22354,-1.62301 2.41055,-2.61988 0.23421,-1.24844 -0.53141,-2.83696 -1.72517,-3.57937 -0.94859,-0.58995 -0.96835,-0.5908 -13.64997,-0.5908 -13.93405,0 -14.18491,0.0253 -15.31401,1.54284 -0.842848,1.13282 -1.060757,2.19783 -0.653555,3.19419 0.547288,1.33913 1.312865,1.87984 3.213735,2.2698 1.85722,0.38101 24.77782,0.18781 25.71842,-0.21678 z m -48.878057,-4.53996 c -2.005396,-0.60383 -3.989972,-2.60991 -5.007517,-5.06179 -0.862819,-2.07903 -0.878398,-6.679542 -0.02885,-8.520272 0.868328,-1.881433 1.98287,-3.156447 3.463719,-3.962426 2.471057,-1.344919 4.706895,-1.208934 7.086607,0.431006 5.551284,3.825579 5.053812,13.968882 -0.821317,16.746352 -1.370237,0.64778 -3.267582,0.79622 -4.692639,0.36713 z m 4.36264,-10.580279 c 0.873488,-0.687086 1.089528,-1.638549 0.624668,-2.751114 -0.93504,-2.237869 -4.131127,-1.570066 -4.131127,0.863174 0,2.015241 1.985542,3.084293 3.506459,1.88794 z M 144.2608,107.31369 c -2.03368,-0.66384 -3.48127,-1.9905 -4.59276,-4.20907 -1.51018,-3.01437 -1.59844,-6.605761 -0.23596,-9.600492 2.62138,-5.761773 8.63259,-5.477724 11.60296,0.548277 2.69011,5.457447 0.0128,12.924045 -4.78986,13.358295 -0.72666,0.0657 -1.61964,0.022 -1.98438,-0.097 z m 2.93248,-10.859683 c 0.99625,-0.996249 1.02339,-2.079445 0.0759,-3.026982 -0.89718,-0.897178 -2.0186,-0.915868 -2.88636,-0.0481 -0.91032,0.910317 -0.86284,2.088287 0.12396,3.075085 0.42537,0.42537 1.02984,0.773398 1.34327,0.773398 0.31343,0 0.9179,-0.348028 1.34327,-0.773398 z M 31.876634,198.91559 c 0.03859,-0.47437 2.216912,-6.35195 5.720101,-15.43402 1.038423,-2.69214 1.888659,-4.99401 1.889413,-5.11528 0.0026,-0.41532 -0.497583,-0.0423 -2.330484,1.73826 -1.812573,1.76078 -1.851427,1.82806 -3.208684,5.55625 -0.755642,2.07564 -1.715873,4.66686 -2.133843,5.75827 -0.41797,1.0914 -0.957845,2.63922 -1.199716,3.43958 -0.43661,1.44475 -0.434798,1.46644 0.251838,3.01723 0.611254,1.38054 0.95491,1.73382 1.011375,1.03971 z m -1.187564,-6.71482 c 0.350036,-0.93599 0.730962,-1.8222 0.846498,-1.96936 0.115538,-0.14715 0.358709,-0.7438 0.540377,-1.32588 0.181671,-0.58209 0.476115,-1.41553 0.654322,-1.85209 1.094658,-2.68164 1.444784,-3.68086 1.329989,-3.79566 -0.192119,-0.19212 -1.364218,0.48826 -2.418212,1.40371 -0.730475,0.63446 -1.119698,1.36356 -1.841899,3.45029 -0.880714,2.54473 -0.903992,2.70945 -0.609151,4.31082 0.170985,0.92867 0.429297,1.62408 0.5841,1.57248 0.152651,-0.0509 0.563938,-0.85832 0.913976,-1.79431 z m -1.391406,-5.09044 c 0.340384,-0.99012 0.262821,-1.11664 -0.504132,-0.82233 -0.270573,0.10383 -0.418515,0.48574 -0.418515,1.08038 0,1.17581 0.475422,1.04284 0.922647,-0.25805 z m 155.023286,-5.05479 c 1.30816,-0.76662 3.147,-2.73393 3.86193,-4.13171 2.65701,-5.19479 1.50081,-16.23699 -2.70033,-25.78937 -3.55685,-8.08744 -7.48104,-14.57044 -12.97606,-21.43726 -3.34479,-4.1798 -3.84673,-4.56864 -2.9954,-2.32046 0.54502,1.43928 3.15863,10.50564 4.10121,14.2267 1.50173,5.92843 2.54681,11.81768 3.2162,18.12396 0.47317,4.45771 0.40223,13.45233 -0.13822,17.52638 -0.24597,1.85415 -0.37417,3.48936 -0.2849,3.63381 0.36705,0.5939 2.66585,1.06159 4.70059,0.95632 1.59916,-0.0827 2.30714,-0.25633 3.21498,-0.78837 z"
       id="path302" /></g></svg>
