<?xml version="1.0" encoding="UTF-8" standalone="no"?>
<svg
   viewBox="0 0 125.48508 125.2881"
   fill="none"
   stroke="#000000"
   stroke-linecap="round"
   stroke-linejoin="round"
   version="1.1"
   id="svg14"
   sodipodi:docname="pengu_icon_colur.svg"
   xml:space="preserve"
   inkscape:version="1.2.2 (b0a8486541, 2022-12-01)"
   inkscape:export-filename="pengu_icon_colur.png"
   inkscape:export-xdpi="600"
   inkscape:export-ydpi="600"
   width="125.48508"
   height="125.2881"
   xmlns:inkscape="http://www.inkscape.org/namespaces/inkscape"
   xmlns:sodipodi="http://sodipodi.sourceforge.net/DTD/sodipodi-0.dtd"
   xmlns="http://www.w3.org/2000/svg"
   xmlns:svg="http://www.w3.org/2000/svg"><defs
     id="defs18" /><sodipodi:namedview
     id="namedview16"
     pagecolor="#ffffff"
     bordercolor="#000000"
     borderopacity="0.25"
     inkscape:showpageshadow="2"
     inkscape:pageopacity="0.0"
     inkscape:pagecheckerboard="0"
     inkscape:deskcolor="#d1d1d1"
     showgrid="false"
     inkscape:zoom="1.7850498"
     inkscape:cx="149.01545"
     inkscape:cy="111.76159"
     inkscape:window-width="1854"
     inkscape:window-height="1011"
     inkscape:window-x="66"
     inkscape:window-y="32"
     inkscape:window-maximized="1"
     inkscape:current-layer="svg14" /><!-- Body --><!-- Eyes --><!-- <circle stroke-width="1" cx="72" cy="88" r="4" fill="white"/>
  <circle stroke-width="1" cx="135" cy="88" r="4" fill="white"/> --><!-- Mouth --><!-- Fur hatch marks (left side) --><!-- Fur hatch marks (right side) --><!-- <line x1="145" y1="120" x2="155" y2="130" stroke="black" stroke-width="3"/>
  <line x1="140" y1="140" x2="150" y2="150" stroke="black" stroke-width="3"/> --><path
     d="m 48.592409,78.899854 c -4.4247,-0.96471 -7.34596,-4.83112 -6.67617,-8.83622 0.40434,-2.41782 2.24409,-4.76178 4.56418,-5.81504 2.18439,-0.99167 2.02857,-0.98304 16.84673,-0.93312 l 13.44069,0.0453 1.05845,0.37949 c 3.15219,1.13016 5.23926,3.43038 5.73859,6.32466 0.70568,4.09032 -2.49929,8.15035 -7.04163,8.92026 -0.59344,0.10057 -5.82597,0.15609 -13.93614,0.14784 -10.42785,-0.0106 -13.18465,-0.0565 -13.9947,-0.23316 z"
     style="fill:#fcbc46;fill-opacity:1;stroke:#000000;stroke-width:3.0949;stroke-dasharray:none;stroke-opacity:1"
     id="path4880" /><path
     d="m 21.469883,66.726415 c -6.33415,-0.83645 -11.01755,-6.886447 -11.01755,-14.232447 0,-7.96781 5.43232,-14.24746 12.34897,-14.27516 2.13633,-0.009 3.66575,0.38308 5.52,1.41349 6.25848,3.47787 8.79507,12.08146 5.68862,19.29458 -2.28612,5.308307 -7.38581,8.480167 -12.54004,7.799537 z"
     style="fill:#000000;stroke-width:0.171487"
     id="path4852" /><path
     d="m 27.824585,52.868434 c -1.71658,-0.19002 -2.98579,-1.56442 -2.98579,-3.23323 0,-1.81008 1.47217,-3.23665 3.34661,-3.24294 0.57895,-0.002 0.99343,0.087 1.49594,0.32111 1.69606,0.79008 2.38349,2.74458 1.54163,4.38321 -0.61954,1.20591 -2.00158,1.92647 -3.39839,1.77185 z"
     style="fill:#ffffff;stroke-width:0.0425497"
     id="path4852-6" /><path
     d="m 101.16136,66.720704 c -6.331266,-0.83612 -11.012526,-6.883687 -11.012526,-14.226727 0,-7.9646 5.42984,-14.24173 12.343336,-14.26942 2.13536,-0.009 3.66408,0.38292 5.51748,1.41293 6.25564,3.47647 8.79108,12.07659 5.68604,19.28681 -2.28508,5.306177 -7.38244,8.476757 -12.53433,7.796407 z"
     style="fill:#000000;stroke-width:0.171412"
     id="path4852-3" /><path
     d="m 107.2662,52.862647 c -1.71657,-0.19002 -2.98579,-1.56442 -2.98579,-3.23323 0,-1.81008 1.47217,-3.23665 3.34661,-3.24294 0.57895,-0.002 0.99343,0.087 1.49594,0.32111 1.69607,0.79008 2.38349,2.74458 1.54163,4.38321 -0.61954,1.20591 -2.00157,1.92647 -3.39839,1.77185 z"
     style="fill:#ffffff;stroke-width:0.0425497"
     id="path4852-6-7" /></svg>
